<svg height="512" viewBox="0 0 58 58" width="512" xmlns="http://www.w3.org/2000/svg"><g id="Page-1" fill="none" fill-rule="evenodd"><g id="028---Treasure-Map" fill-rule="nonzero"><path id="Shape" d="m58 24v33c0 .5522847-.4477153 1-1 1h-6l-4-5-4 5h-23v-4c0-.5522847-.4477153-1-1-1s-1 .4477153-1 1v4h-13.77c-2.26143364.0344119-4.13805839-1.7401741-4.23-4v-.19c.10150703-2.1346067 1.86298251-3.8124121 4-3.81h8c.5522847 0 1-.4477153 1-1v-26h13l3 4 3-4h3l.25.38c1.9352641 2.9645518 4.3996516 5.5475825 7.27 7.62 2.8524029-2.0771021 5.2995705-4.6598469 7.22-7.62.08-.13.17-.25.24-.38h7c.2686646-.0053744.5281869.0976051.7200714.2857271.1918845.1881221.2999823.4455545.2999286.7142729z" fill="#b19046"/><g fill="#603e26"><path id="Shape" d="m58 41v2.0000316c-.5858308.0016701-1.1698332-.0654566-1.74-.2000316-.4874247-.1207068-.9577686-.3021252-1.4-.54-.3941377-.2136353-.7688911-.4612402-1.12-.74-.3348368-.2621885-.467218-.7074709-.33-1.11.0394341-.1037081.0932979-.2013363.16-.29.1714356-.2090536.4202131-.3397842.6896244-.3623921.2694114-.022608.536497.0648334.7403756.2423921.2549556.2064659.5296128.3873377.82.54.3148741.1684179.6513351.2929084 1 .37.3888164.0733817.7845521.1035649 1.18.09z"/><path id="Shape" d="m51.67 39.63c-.1641409-.0008202-.3255563-.0420326-.47-.12-.3164791-.164824-.6524559-.2891354-1-.37-.3934603-.0916572-.7960072-.138621-1.2-.14-.5522847 0-1-.4477153-1-1s.4477153-1 1-1c.5825654-.0023182 1.1633301.0648222 1.73.2.4912864.1185513.9652058.3000523 1.41.54.4135836.2117691.6268133.6805142.5146812 1.1314286-.1121322.4509145-.5200806.7651868-.9846812.7585714z"/><path id="Shape" d="m42.67 42.38c-.3743567.0007787-.7177963-.2076004-.89-.54-.2566488-.4887869-.0686457-1.0930824.42-1.35.2790466-.1422036.5465307-.3060376.8-.49.28-.22.54-.46.81-.7s.59-.52.91-.77c.264138-.2792897.6649886-.3824471 1.0311331-.2653581.3661445.1170889.6327597.4336944.6858308.814424.0530712.3807297-.1167976.7581781-.4369639.9709341-.28.22-.54.46-.81.7s-.59.52-.91.77c-.3493655.2762975-.7205848.523777-1.11.74-.1533578.0828986-.3257227.1242662-.5.12z"/><path id="Shape" d="m38.5 42.83c-.0797099.0096348-.1602901.0096348-.24 0-.4912864-.1185513-.9652058-.3000523-1.41-.54-.3894152-.216223-.7606345-.4637025-1.11-.74-.2976726-.2183118-.4508642-.5828597-.398486-.9482711.0523783-.3654115.3018064-.6722477.6488188-.7981501.3470123-.1259024.735163-.0503913 1.0096672.1964212.2581221.2020993.5323734.3827038.82.54.3164791.164824.6524559.2891354 1 .37.5522847.0662742.9462741.5677153.88 1.12-.0662742.5522847-.5677153.9462742-1.12.88z"/><path id="Shape" d="m33.67 39.63c-.1641409-.0008202-.3255563-.0420326-.47-.12-.3164791-.164824-.6524559-.2891354-1-.37-.3935613-.0910766-.7960427-.1380327-1.2-.14-.5522847 0-1-.4477153-1-1s.4477153-1 1-1c.5825338-.0017523 1.1632317.0653804 1.73.2.4912864.1185513.9652058.3000523 1.41.54.2355921.1251081.4114349.3391576.4884295.5945543.0769946.2553968.0487587.53097-.0784295.7654457-.1732384.3253472-.5114063.5290165-.88.53z"/><path id="Shape" d="m25.64 41.73c-.3077803.001658-.5991779-.138508-.79-.38-.3101731-.4201346-.2448326-1.0081993.15-1.35.28-.22.55-.46.81-.7s.6-.52.91-.77c.264138-.2792897.6649886-.3824471 1.0311331-.2653581.3661445.1170889.6327597.4336944.6858308.814424.0530712.3807297-.1167976.7581781-.4369639.9709341-.29.22-.55.46-.82.7s-.59.52-.91.77c-.1799476.1397203-.4022097.2138076-.63.21z"/><path id="Shape" d="m22 43c-.585867.0023543-1.169946-.0647812-1.74-.2-.4874247-.1207068-.9577686-.3021252-1.4-.54-.3161801-.1679148-.518761-.4917546-.5314325-.8495319-.0126715-.3577774.1664915-.6951375.47-.885.3035085-.1898626.6852525-.2033829 1.0014325-.0354681.2964378.1625628.6122893.2868874.94.37.4132296.0949016.8360171.141878 1.26.14.5522847 0 1 .4477153 1 1s-.4477153 1-1 1z"/><path id="Shape" d="m16.64 40.27c-.2255642-.0013084-.4440607-.0788394-.62-.22-.2549556-.2064659-.5296128-.3873377-.82-.54-.2999068-.1626641-.6190769-.2869725-.95-.37-.4097438-.095472-.8292877-.1424609-1.25-.14-.5522847 0-1-.4477153-1-1s.4477153-1 1-1c.585867-.0023543 1.169946.0647812 1.74.2.4874247.1207068.9577686.3021252 1.4.54.3908692.2138294.7622848.4614397 1.11.74.4321033.3404661.5080627.9660137.17 1.4-.1866359.2424927-.4740243.3861869-.78.39z"/></g><path id="Shape" d="m13 20v29c0 .5522847-.4477153 1-1 1h-8c-2.13701749-.0024121-3.89849297 1.6753933-4 3.81v-30.81c0-2.209139 1.790861-4 4-4h1v4c0 .5522847.44771525 1 1 1s1-.4477153 1-1v-4h5c.5522847 0 1 .4477153 1 1z" fill="#e4c05c"/><path id="Shape" d="m46.26 27.74c1.66.72 2.74 1.91 2.74 3.26 0 2.21-2.91 4-6.5 4s-6.5-1.79-6.5-4c0-1.36 1.1-2.55 2.77-3.28z" fill="#603e26"/><path id="Shape" d="m53.52 11.13c-.031061 4.2093562-1.2513028 8.3242057-3.52 11.87-.07.13-.16.25-.24.38-1.9263644 2.9619096-4.3804193 5.5447685-7.24 7.62-2.8524029-2.0771021-5.2995705-4.6598469-7.22-7.62l-.25-.38h-.05c-2.2526401-3.5335408-3.4655293-7.6296409-3.5-11.82 0-6.07513225 4.9248678-11 11-11s11 4.92486775 11 11z" fill="#e64c3c"/><ellipse id="Oval" cx="42.45" cy="11" fill="#f9eab0" rx="6.93" ry="7"/><path id="Shape" d="m42.45 19c-3.2419172.0283679-6.1804225-1.9026806-7.4407563-4.8897177-1.2603339-2.9870371-.5932743-6.43939763 1.6890994-8.74191843 2.2823738-2.30252081 5.7287387-2.99989492 8.7267366-1.76586066s4.9547962 4.15545546 4.9549203 7.39749679c.0001681 4.391085-3.5390831 7.961578-7.93 8zm0-14c-2.4329424-.02838625-4.6421521 1.41533172-5.592934 3.65498084-.9507819 2.23964916-.4548699 4.83175266 1.2554728 6.56228496 1.7103428 1.7305323 4.2964485 2.2568277 6.5471005 1.3323929 2.2506521-.9244347 3.7201951-3.1165507 3.7203607-5.5496587.0002237-3.28656317-2.6436605-5.96165677-5.93-6z" fill="#c03a2b"/><path id="Shape" d="m24.33 27.45c-.3020343-.4265667-.8816181-.5485843-1.33-.28l-1.7 1.13-1.7-1.13c-.4550261-.2440793-1.0210631-.101585-1.306288.3288453s-.1958368 1.0072424.206288 1.3311547l1 .67-1 .67c-.3577797.2389957-.5225776.6800542-.4091763 1.0951028.1134013.4150487.4795768.7110324.9091763.7348972.1966006.0022477.3889572-.057208.55-.17l1.7-1.13 1.75 1.13c.1610428.112792.3533994.1722477.55.17.4385565-.0033853.8237305-.292132.9499631-.7121422.1262326-.4200103-.0359373-.8732592-.3999631-1.1178578l-1-.67 1-.67c.4392418-.3208805.5414296-.9340076.23-1.38z" fill="#c03a2b"/><path id="Shape" d="m35.22 49.5 2.36-1.69c.3252383-.192624.5140678-.5521755.488039-.9292782s-.262467-.7073009-.611086-.8534132c-.3486189-.1461122-.7498314-.0831645-1.036953.1626914l-2.92 2.08-2.92-2.08c-.2871216-.2458559-.6883341-.3088036-1.036953-.1626914-.348619.1461123-.5850572.4763105-.611086.8534132s.1628007.7366542.488039.9292782l2.36 1.69-2.36 1.69c-.3502219.2535376-.4978388.703439-.3659003 1.115178.1319384.411739.5135474.6920542.9459003.694822.2084089-.0013461.4111896-.0677742.58-.19l2.92-2.08 2.92 2.08c.1688104.1222258.3715911.1886539.58.19.4323529-.0027678.8139619-.283083.9459003-.694822.1319385-.411739-.0156784-.8616404-.3659003-1.115178z" fill="#c03a2b"/><path id="Shape" d="m8 51c-.55228475 0-1-.4477153-1-1v-4c0-.5522847.44771525-1 1-1s1 .4477153 1 1v4c0 .5522847-.44771525 1-1 1z" fill="#b19046"/></g></g></svg>