<svg id="Capa_1" enable-background="new 0 0 504.5 504.5" height="512" viewBox="0 0 504.5 504.5" width="512" xmlns="http://www.w3.org/2000/svg"><g><path d="m218.5 285v196.592l24.87 8.29c3.93 1.31 6.053 5.557 4.744 9.487-1.31 3.93-5.559 6.054-9.487 4.744l-29.998-10c-3.063-1.021-5.128-3.887-5.128-7.115v-201.998z" fill="#353535"/><path d="m143.5 285v196.592l-24.87 8.29c-3.93 1.31-6.053 5.557-4.744 9.487 1.31 3.93 5.559 6.054 9.487 4.744l29.998-10c3.063-1.021 5.128-3.887 5.128-7.115v-201.998z" fill="#4f4f4f"/><path d="m226 292.5h-45v-15h45c23.435 0 42.5-19.065 42.5-42.5s-19.065-42.5-42.5-42.5h-45v-15h45c31.706 0 57.5 25.794 57.5 57.5s-25.794 57.5-57.5 57.5z" fill="#ff4996"/><path d="m376 0c-44.356 0-81.215 32.089-88.636 74.318l-31.364 15.682 31.364 15.682c7.421 42.229 44.28 74.318 88.636 74.318 49.706 0 90-40.294 90-90s-40.294-90-90-90z" fill="#ebebeb"/><path d="m324.039 60v60l51.961-30v-60z" fill="#999"/><path d="m376 150 51.961-30-51.961-30-51.961 30z" fill="#808080"/><path d="m376 30v60l51.961 30v-60z" fill="#696969"/><path d="m376 30-51.961 90h103.922z" fill="#b3b3b3"/><path d="m61 177.5c-4.136 0-7.5-3.364-7.5-7.5s3.364-7.5 7.5-7.5h15c4.143 0 7.5-3.358 7.5-7.5s-3.357-7.5-7.5-7.5h-15c-12.406 0-22.5 10.093-22.5 22.5s10.094 22.5 22.5 22.5h120v-15z" fill="#ff6b8a"/><path d="m56.514 91.25v22.5l19.486 11.25 19.485-11.25v-22.5l-19.485-11.25z" fill="#999"/><path d="m214.747 22.502c-.007-7.769-4.035-15.323-11.247-19.487-7.212-4.164-15.768-3.875-22.5.003-6.732-3.879-15.288-4.167-22.5-.003s-11.24 11.718-11.247 19.487c-6.725 3.891-11.253 11.157-11.253 19.485v48.013h90v-48.013c0-8.328-4.528-15.594-11.253-19.485z" fill="#ff8646"/><path d="m181 255v75c24.853 0 45-20.147 45-45z" fill="#353535"/><path d="m196 285-15-30-45 30c0 24.853 20.147 45 45 45 8.284 0 15-20.147 15-45z" fill="#4f4f4f"/><path d="m206 165h-30l20 120h30v-100c0-11.046-8.954-20-20-20z" fill="#ff4996"/><path d="m176 165h-20c-11.046 0-20 8.954-20 20v100h60v-100c0-11.046-8.954-20-20-20z" fill="#ff6b8a"/><path d="m181 45v90c24.853 0 45-20.147 45-45s-20.147-45-45-45z" fill="#ffd9d4"/><path d="m196 90c0-24.853-6.716-45-15-45-24.853 0-45 20.147-45 45s20.147 45 45 45c8.284 0 15-20.147 15-45z" fill="#fff0d3"/></g></svg>