<svg xmlns="http://www.w3.org/2000/svg" viewBox="25 0 700 500"><g id="freepik--background-simple--inject-10"><path d="M563.85,132l-2.59-4.27c-21.84-36-61.32-57.67-102.94-55a109.94,109.94,0,0,0-15.93,2.19C404.55,83,371.62,111.64,358,148.29c-8,21.55-10.27,46.37-25.5,63.48-19.83,22.27-53.48,23-83.07,22s-63.27-.13-83,22.22c-12.36,14-16.28,33.91-15.29,52.66,2.64,49.64,37.23,94,81.22,116.08s95.78,24,143.92,14.34c67.44-13.6,131.58-50.93,170.13-108.6S594.69,194.28,563.85,132Z" style="fill:#f5f5f5"></path><circle cx="659.62" cy="123.92" r="57.86" style="fill:#f5f5f5"></circle><circle cx="95.26" cy="402.47" r="57.86" style="fill:#f5f5f5"></circle></g><g id="freepik--character-3--inject-10"><rect x="513.51" y="127.89" width="154.37" height="276.94" transform="translate(1181.4 532.72) rotate(180)" style="fill:#e0e0e0"></rect><rect x="517.91" y="145.7" width="145.59" height="254.31" transform="translate(1181.4 545.71) rotate(180)" style="fill:#fff"></rect><path d="M664.75,366.46s0,.74,0,2.19-.12,3.61-.22,6.44c-.2,5.67-.49,14.06-.88,24.92v.11h-.11l-145.58.11h-.23V400c0-53.29,0-116.38,0-183.75V145.45h.26l145.58,0h.21v.21c0,44.71,0,81.4-.05,106.93,0,12.75,0,22.72,0,29.5,0,3.38,0,6,0,7.72s0,2.64,0,2.64,0-.89,0-2.64,0-4.34,0-7.72c0-6.78,0-16.75-.07-29.5,0-25.53-.07-62.22-.13-106.93l.21.21L517.91,146l.25-.26c0,22.74,0,46.37,0,70.56,0,67.37,0,130.46,0,183.75l-.22-.23,145.58.12-.11.1c.43-10.86.76-19.24,1-24.92.12-2.83.21-5,.27-6.43S664.75,366.46,664.75,366.46Z" style="fill:#263238"></path><path d="M610.59,260.82s16.72,11.65,19.11,14.93,25.69,47.79,30.77,58.25-1.56,51.32-3.12,66H624.54l-46.81-94.69,6.87-55Z" style="fill:#56CA77"></path><g style="opacity:0.30000000000000004"><path d="M610.59,260.82s16.72,11.65,19.11,14.93,25.69,47.79,30.77,58.25-2.53,50.11-3.12,66h-31l-48.62-94.69,6.87-55Z"></path></g><path d="M616.81,290.6s8.86,5.41,10.32,9.41,3.91,11.34,4.35,16.9,13,15.68,13.57,16.68,6.66,53.08,8.3,66.42h4s4.86-25.41,5.36-46.26a87.76,87.76,0,0,0-1-17l-20.24-39.36s-10.71-21.13-12.59-23.05-27.06-20.18-27.06-20.18-10.88-2.23-10.77-1S613.84,286.32,616.81,290.6Z" style="fill:#56CA77"></path><path d="M645.83,212.13s-13.44,11.05-18.82,23.6-14,20.91-17.32,20.91S598,253.05,598,259.32s7.47,4.19,6.87,11.06l-2.09,5.37-27.78-29-12.84-6.57s-6.57-8.07-4.18-14.64,5.67-19.71,8.66-26.58,1.79-19.12,4.78-23.6,13.74-12.84,19.41-11,32,14.94,35.55,20S645.83,212.13,645.83,212.13Z" style="fill:#56CA77"></path><path d="M647.78,399.93s-14.16-76.33-19.27-87.73a172.36,172.36,0,0,0-12.1-21.89l-14.55-21,.79,4.31.17,2.14,5.74,124.18Z" style="fill:#455a64"></path><path d="M618.65,343.85s-11-20.31-11.65-27.48-4.18-40.62-4.18-40.62l-9.26-22.1,3.29-1.49,16.13.29-40-20.9s-27.88,25.16-31.46,33.52-11.25,51.6-14.24,62.95-9.34,72-9.34,72l111.14-.08-10.4-56.08" style="fill:#56CA77"></path><path d="M620,346.84l8.39-21.49c2-5.91-1.11-25.9-1.11-25.9-1.8-2.74-6.44-6-10.84-9.14,0,0,3.13,15.84-.4,28.55l-3.54,12.71Z" style="fill:#263238"></path><path d="M616.57,311.91c.15.13-.32.78-.79,2a7.84,7.84,0,0,0,0,5.29,12.84,12.84,0,0,0,1.61,3.38,13.3,13.3,0,0,0,3,3.08,16.91,16.91,0,0,0,4.15,2.31,5,5,0,0,0,2.12.34,2,2,0,0,0,1.46-.81,4.57,4.57,0,0,0,.71-2,14.57,14.57,0,0,0,0-2.48,15.39,15.39,0,0,0-1-4.66,13.21,13.21,0,0,0-2.15-3.69,10.1,10.1,0,0,0-2.77-2.4,6.17,6.17,0,0,0-2.84-.76,7.41,7.41,0,0,0-2.31.24c-1.22.32-1.59,1-1.77.93s-.1-.26.08-.63a3,3,0,0,1,1.3-1.24,7.69,7.69,0,0,1,6.33-.2,11.11,11.11,0,0,1,3.59,2.62,14.49,14.49,0,0,1,2.76,4.22,17,17,0,0,1,1.31,5.39,17.51,17.51,0,0,1,0,3,6.92,6.92,0,0,1-1.19,3.24,4.59,4.59,0,0,1-3.3,1.84,7.4,7.4,0,0,1-3.24-.52,18.09,18.09,0,0,1-4.78-2.83,14.68,14.68,0,0,1-3.3-3.8,13.6,13.6,0,0,1-1.58-4.08,9.46,9.46,0,0,1-.1-3.65,7,7,0,0,1,1-2.57C615.73,312.2,616.46,311.8,616.57,311.91Z" style="fill:#fff"></path><g style="opacity:0.30000000000000004"><polygon points="601.66 225.54 603.61 229.49 607.98 230.13 604.82 233.21 605.57 237.55 601.66 235.5 597.76 237.55 598.5 233.21 595.35 230.13 599.71 229.49 601.66 225.54" style="fill:#fff"></polygon></g><g style="opacity:0.30000000000000004"><polygon points="575.02 331.22 576.97 335.18 581.33 335.81 578.17 338.89 578.92 343.24 575.02 341.18 571.11 343.24 571.86 338.89 568.7 335.81 573.07 335.18 575.02 331.22" style="fill:#fff"></polygon></g><g style="opacity:0.30000000000000004"><polygon points="595.9 372.1 597.85 376.06 602.22 376.69 599.06 379.77 599.8 384.12 595.9 382.06 592 384.12 592.75 379.77 589.59 376.69 593.95 376.06 595.9 372.1" style="fill:#fff"></polygon></g><g style="opacity:0.30000000000000004"><polygon points="569.12 250.09 571.08 254.04 575.44 254.67 572.28 257.75 573.03 262.1 569.12 260.04 565.22 262.1 565.97 257.75 562.81 254.67 567.17 254.04 569.12 250.09" style="fill:#fff"></polygon></g><g style="opacity:0.30000000000000004"><polygon points="540.98 299.65 542.93 303.61 547.29 304.24 544.14 307.32 544.88 311.66 540.98 309.61 537.08 311.66 537.82 307.32 534.66 304.24 539.03 303.61 540.98 299.65" style="fill:#fff"></polygon></g><g style="opacity:0.30000000000000004"><polygon points="565.97 227.79 567.92 231.74 572.28 232.38 569.12 235.46 569.87 239.8 565.97 237.75 562.06 239.8 562.81 235.46 559.65 232.38 564.01 231.74 565.97 227.79" style="fill:#fff"></polygon></g><g style="opacity:0.30000000000000004"><polygon points="578.55 196.66 581.61 202.87 588.47 203.86 583.51 208.69 584.68 215.52 578.55 212.3 572.42 215.52 573.59 208.69 568.63 203.86 575.49 202.87 578.55 196.66" style="fill:#fff"></polygon></g><g style="opacity:0.30000000000000004"><polygon points="610.69 188.37 613.75 194.58 620.6 195.57 615.64 200.41 616.82 207.23 610.69 204.01 604.56 207.23 605.73 200.41 600.77 195.57 607.62 194.58 610.69 188.37" style="fill:#fff"></polygon></g><g style="opacity:0.30000000000000004"><polygon points="565.78 286.67 568.84 292.88 575.7 293.88 570.74 298.71 571.91 305.54 565.78 302.31 559.65 305.54 560.82 298.71 555.86 293.88 562.72 292.88 565.78 286.67" style="fill:#fff"></polygon></g><g style="opacity:0.30000000000000004"><polygon points="535.79 357.19 538.85 363.4 545.7 364.4 540.75 369.23 541.91 376.06 535.79 372.83 529.66 376.06 530.83 369.23 525.87 364.4 532.72 363.4 535.79 357.19" style="fill:#fff"></polygon></g><g style="opacity:0.30000000000000004"><polygon points="589.76 171.65 591.65 175.48 595.88 176.09 592.82 179.07 593.54 183.28 589.76 181.29 585.99 183.28 586.71 179.07 583.65 176.09 587.88 175.48 589.76 171.65" style="fill:#fff"></polygon></g><path d="M557.13,227.33a7.48,7.48,0,0,1,1-1.12c.65-.69,1.61-1.68,2.82-2.88,2.42-2.4,5.85-5.63,9.78-9s7.65-6.31,10.38-8.34c1.37-1,2.49-1.82,3.27-2.36a8.68,8.68,0,0,1,1.25-.8,7.88,7.88,0,0,1-1.13,1l-3.16,2.49c-2.67,2.11-6.33,5.06-10.27,8.44s-7.39,6.57-9.86,8.89l-2.94,2.77A8.77,8.77,0,0,1,557.13,227.33Z" style="fill:#263238"></path><path d="M568.05,202.12a30.48,30.48,0,0,1,2.51-2.21c1.57-1.34,3.69-3.23,5.92-5.45s4.13-4.33,5.48-5.89a26.87,26.87,0,0,1,2.22-2.49,3.1,3.1,0,0,1-.47.77c-.32.47-.83,1.14-1.47,2a69.92,69.92,0,0,1-5.39,6,70.65,70.65,0,0,1-6.06,5.37c-.81.63-1.49,1.13-2,1.46A3.14,3.14,0,0,1,568.05,202.12Z" style="fill:#263238"></path><path d="M589.76,249a24.85,24.85,0,0,0,5.76,1.24,24.1,24.1,0,0,0,13.6-3.27,37,37,0,0,0,10.47-9.51c1.12-1.45,2-2.67,2.54-3.52a10.53,10.53,0,0,1,.92-1.3,8.05,8.05,0,0,1-.75,1.41c-.53.89-1.33,2.14-2.41,3.63a35.36,35.36,0,0,1-10.51,9.74,23.63,23.63,0,0,1-13.89,3.19,18.07,18.07,0,0,1-4.27-1,9.65,9.65,0,0,1-1.09-.46A1.17,1.17,0,0,1,589.76,249Z" style="fill:#263238"></path><path d="M565.92,262.5a2.16,2.16,0,0,1,.45,0,11.72,11.72,0,0,1,1.28.21,27.14,27.14,0,0,1,4.58,1.32,33.73,33.73,0,0,1,12.88,8.9,32,32,0,0,1,7.24,13.87,29.49,29.49,0,0,1,.76,4.71c.06.56,0,1,.06,1.29a1.31,1.31,0,0,1,0,.46,14.69,14.69,0,0,1-.24-1.73,37.43,37.43,0,0,0-.91-4.64,33,33,0,0,0-7.28-13.61,34.68,34.68,0,0,0-12.62-8.9,33.62,33.62,0,0,0-4.5-1.48A12.24,12.24,0,0,1,565.92,262.5Z" style="fill:#263238"></path><path d="M671.41,252.28c.35,1.94-19.3,147.65-19.3,147.65l-8.44.08,20.44-148.59Z" style="fill:#263238"></path><polygon points="671.26 217.71 677.99 226.19 676.06 240.41 671.26 252.28 663.77 252.81 662.14 235 671.26 217.71" style="fill:#455a64"></polygon><polygon points="662.74 261.36 658.37 242.03 660.52 228.85 668.44 223.34 658.37 228.01 654.84 242.35 662.14 269.97 662.74 261.36" style="fill:#263238"></polygon><polygon points="670.05 264.34 682.72 250.59 678.15 226.19 677.23 233.53 678.86 249.22 668.44 260.59 670.05 264.34" style="fill:#263238"></polygon><path d="M671.56,222.76s-.17.38-.48,1-.78,1.63-1.34,2.78c-1.15,2.39-2.75,5.74-4.74,9.75l0-.11c.21,4.18.46,9.1.73,14.38l-.28-.24,2.78-.25,2-.17-.22.15,4.71-9.76,0,.07c.6-4.61,1.12-8.64,1.53-11.8l0,.12c-1.52-1.83-2.71-3.29-3.51-4.31a8.62,8.62,0,0,1-1.16-1.63c.73.84,2.15,2.49,4.92,5.73l0,0v.08l-1.38,11.82v.08l-4.67,9.78-.06.13h-.15l-2,.17-2.78.24-.26,0,0-.27c-.24-5.29-.46-10.21-.65-14.39v-.06l0,0c2.09-4.11,3.88-7.49,5.09-9.8l1.39-2.66C671.4,223.05,671.57,222.73,671.56,222.76Z" style="fill:#263238"></path><path d="M662.61,234.48c.08-.11.68.2,1.33.69s1.11,1,1,1.1-.68-.19-1.33-.69S662.52,234.6,662.61,234.48Z" style="fill:#263238"></path><path d="M664,253.28c-.12-.08.11-.68.51-1.36s.83-1.16.95-1.08-.1.68-.5,1.35S664.1,253.35,664,253.28Z" style="fill:#263238"></path><path d="M670.07,249.91c.12-.06.52.46.89,1.16s.56,1.34.43,1.4-.53-.45-.89-1.16S669.94,250,670.07,249.91Z" style="fill:#263238"></path><path d="M675,240c.08-.12.41,0,.74.17s.52.49.44.61-.41,0-.73-.17S674.89,240.16,675,240Z" style="fill:#263238"></path><path d="M676.5,228.85c-.12-.09.21-.7.65-1.42s.82-1.29,1-1.23-.06.76-.52,1.5S676.61,228.94,676.5,228.85Z" style="fill:#263238"></path><path d="M671.26,217.71a6.25,6.25,0,0,1,.41,2.51,6.1,6.1,0,0,1-.11,2.54,6.62,6.62,0,0,1-.41-2.51A6.52,6.52,0,0,1,671.26,217.71Z" style="fill:#263238"></path><g style="opacity:0.30000000000000004"><polygon points="671.56 223.74 673.88 240.82 669.8 249.34 666.19 249.34 665.73 236.27 671.56 223.74" style="fill:#fff"></polygon></g><path d="M661,278.5c.08,0,.32.76.93,1.92s1.6,2.68,2.62,4.44a12.55,12.55,0,0,1,1.78,4.91,4.13,4.13,0,0,1-.21,2.16c-.09,0,.06-.83-.16-2.11a14.67,14.67,0,0,0-1.86-4.7,44,44,0,0,1-2.5-4.54A5.21,5.21,0,0,1,661,278.5Z" style="fill:#455a64"></path><path d="M661.54,271.32a55.12,55.12,0,0,0,2.33,6.2,57.43,57.43,0,0,0,3.51,5.61,5.91,5.91,0,0,1-1.4-1.39,20.76,20.76,0,0,1-2.58-4,21.12,21.12,0,0,1-1.61-4.48A6.1,6.1,0,0,1,661.54,271.32Z" style="fill:#455a64"></path><path d="M662.05,264.79c.05,0,0,.65.17,1.78a9.58,9.58,0,0,0,1.12,3.15,2.89,2.89,0,0,0,.9,1,1.49,1.49,0,0,0,1.38,0,3,3,0,0,0,1.21-1.08,15.34,15.34,0,0,0,1.74-3.38,16,16,0,0,0,.67-8.59,4.92,4.92,0,0,0-.7-2c-.42-.47-1.13-.08-1.53.46A9.14,9.14,0,0,0,665.5,260a21.06,21.06,0,0,0-.25,3.82c0,.6,0,1.18,0,1.74,0,.26.1.45.23.46s.3-.15.41-.35A29.81,29.81,0,0,0,667,261a17.89,17.89,0,0,1,.29-1.77,1.27,1.27,0,0,1,0,.46c0,.31-.05.76-.11,1.33a24.45,24.45,0,0,1-1,4.83.85.85,0,0,1-.78.56.62.62,0,0,1-.46-.33,1.28,1.28,0,0,1-.13-.48c0-.58,0-1.15-.06-1.77a21.12,21.12,0,0,1,.21-3.9,9.43,9.43,0,0,1,1.58-4.06,2.43,2.43,0,0,1,1-.78,1.21,1.21,0,0,1,1.33.27,2.64,2.64,0,0,1,.56,1.14c.1.38.21.76.28,1.16a16.25,16.25,0,0,1-.73,8.86,15.85,15.85,0,0,1-1.84,3.47,3.36,3.36,0,0,1-1.4,1.19,1.88,1.88,0,0,1-1.73-.09,3.08,3.08,0,0,1-1-1.18,9.12,9.12,0,0,1-.54-1.22,9,9,0,0,1-.49-2.06,8.17,8.17,0,0,1,0-1.34A1.28,1.28,0,0,1,662.05,264.79Z" style="fill:#455a64"></path><path d="M666.05,297.77s-.23-.76-.88-2a3.5,3.5,0,0,0-1.79-1.67,2.17,2.17,0,0,0-1.47-.08,2.07,2.07,0,0,0-1.2,1.1,6.83,6.83,0,0,0-.57,1.84c-.14.68-.25,1.38-.34,2.12a27.84,27.84,0,0,0,.61,9.86q.17.66.36,1.32a3.83,3.83,0,0,0,.52,1.2,1,1,0,0,0,1,.47,1.46,1.46,0,0,0,1-.69,8,8,0,0,0,.71-2.65,23.34,23.34,0,0,0,.28-2.74,25.14,25.14,0,0,0-.33-5.19c-.14-.81-.32-1.6-.53-2.36-.11-.37-.21-.77-.34-1.09s-.35-.54-.6-.49-.48.32-.63.61a9,9,0,0,0-.39.95,16.16,16.16,0,0,0-.51,1.89,14.49,14.49,0,0,0,.09,5.91c.31,1.37.64,2.09.59,2.11a2.87,2.87,0,0,1-.25-.51,12.1,12.1,0,0,1-.54-1.56,14.1,14.1,0,0,1-.25-6,15.17,15.17,0,0,1,.49-2,10.2,10.2,0,0,1,.4-1,1.49,1.49,0,0,1,.92-.84.87.87,0,0,1,.71.19,1.52,1.52,0,0,1,.38.55c.16.39.25.75.37,1.14.22.77.41,1.58.56,2.41a24.71,24.71,0,0,1,.37,5.3,26.85,26.85,0,0,1-.27,2.79c-.07.48-.17.95-.27,1.42a4.2,4.2,0,0,1-.52,1.43,2,2,0,0,1-1.33.92,1.51,1.51,0,0,1-1.47-.67,4.26,4.26,0,0,1-.59-1.36c-.14-.45-.26-.9-.37-1.35a27.31,27.31,0,0,1-.74-5.24,27.66,27.66,0,0,1,.21-4.8c.09-.74.22-1.46.37-2.14a6.83,6.83,0,0,1,.63-1.93,2.47,2.47,0,0,1,1.43-1.25,2.51,2.51,0,0,1,1.68.13,3.72,3.72,0,0,1,1.86,1.84,9.35,9.35,0,0,1,.58,1.54A1.92,1.92,0,0,1,666.05,297.77Z" style="fill:#455a64"></path><path d="M664.24,316.1s3.19,1.13,2.5,5.69c0,0,2,2.73,1.6,5.24s-.23,6.83-.91,8.66a21,21,0,0,1-3.19,4.78c-1.56,1.46-12.84-.11-14.58-.46-3.42-.68-2-4.78-2.28-5s-3.19-4.4-1.59-6.19c0,0-.69-4.51.68-5.65,0,0-.68-4.1.46-5.7a3,3,0,0,1,2.7-1.36Z" style="fill:#ffbe9d"></path><path d="M646.74,323a6.19,6.19,0,0,1,2-.78,21.72,21.72,0,0,1,5.2-.71,42.53,42.53,0,0,1,5.23.24,8.42,8.42,0,0,1,2.14.35c0,.18-3.31-.13-7.36-.07a29.78,29.78,0,0,0-5.13.55A14.57,14.57,0,0,1,646.74,323Z" style="fill:#eb996e"></path><path d="M645.59,328.89a7.17,7.17,0,0,1,2-.42,36.4,36.4,0,0,1,5-.29,37.45,37.45,0,0,1,5,.38,7.21,7.21,0,0,1,2,.46c0,.16-3.15-.29-7-.32S645.61,329,645.59,328.89Z" style="fill:#eb996e"></path><path d="M647.78,334.41c0-.15,2.5.26,5.56.29s5.55-.32,5.57-.17a21,21,0,0,1-11.13-.12Z" style="fill:#eb996e"></path><path d="M663.21,343.68a8.38,8.38,0,0,1,2.27,2.81c.56,1.44,0,4.21,0,4.21a6.52,6.52,0,0,1,1.22,4.66,29.24,29.24,0,0,1-1.1,5.1,7.7,7.7,0,0,1,.22,3.88,6.69,6.69,0,0,1-2.61,3.54s-1.49,1.89-3.27,2-15.63-.78-18.51-1.55a18.51,18.51,0,0,1-6-3.55l2.55-21.1a42.67,42.67,0,0,1,3.44-4.4c1.33-1.33,6.13-1.66,6.13-1.66a17.06,17.06,0,0,1,1.29,2.13c.56,1.11,3.89,3.14,3.89,3.14Z" style="fill:#ffbe9d"></path><path d="M639.16,341.53H617.41l7.89,31.6s15.07-2.58,18.16-4.44c4.32-2.6,7.65-9.7,6.58-14.94s-1.48-11.76-10.88-12.22" style="fill:#455a64"></path><path d="M603.51,282.25a13.35,13.35,0,0,1-.22-1.77c-.11-1.14-.28-2.79-.55-4.81a66.31,66.31,0,0,0-1.29-7.06,32.82,32.82,0,0,0-1.23-4,20.09,20.09,0,0,0-.9-2c-.34-.67-.73-1.35-1.05-2.08a7,7,0,0,1-.66-2.3,3.58,3.58,0,0,1,.59-2.3,1.62,1.62,0,0,1,1-.69,3.64,3.64,0,0,1,1.15,0l2.05.27,3.82.53,1.73.24a4.29,4.29,0,0,0,1.54.07,12.23,12.23,0,0,0,4.32-2c.94-.64,1.36-1.12,1.39-1.09a1.28,1.28,0,0,1-.28.37,7.48,7.48,0,0,1-1,.89,14.65,14.65,0,0,1-1.76,1.14,9.74,9.74,0,0,1-2.62,1,4.88,4.88,0,0,1-1.66,0l-1.73-.21-3.8-.48c-.66-.09-1.38-.15-2.07-.26a3.77,3.77,0,0,0-1,0,1.18,1.18,0,0,0-.72.49,3.05,3.05,0,0,0-.49,2,6.45,6.45,0,0,0,.61,2.13c.32.7.7,1.36,1,2.05a21,21,0,0,1,.92,2.08,34.19,34.19,0,0,1,1.22,4.1,60.9,60.9,0,0,1,1.19,7.12c.22,2,.33,3.7.38,4.84,0,.58,0,1,0,1.32A1.31,1.31,0,0,1,603.51,282.25Z" style="fill:#263238"></path><path d="M565.78,242.33a4,4,0,0,1,1.09.19c.69.16,1.69.42,2.91.77a85.69,85.69,0,0,1,9.34,3.36,84.8,84.8,0,0,1,8.88,4.43c1.1.64,2,1.18,2.57,1.57a4.53,4.53,0,0,1,.89.65,4.4,4.4,0,0,1-1-.48l-2.65-1.42c-2.23-1.19-5.36-2.75-8.91-4.27s-6.84-2.69-9.24-3.49l-2.86-.92A5,5,0,0,1,565.78,242.33Z" style="fill:#263238"></path><g style="opacity:0.30000000000000004"><path d="M562.67,240.66c4.46,2.94,9.53,3.05,14.34,5.39,4.54,2.2,9.94,4.31,14.08,7.11l-21.76-4c-2-.38-4.16-.79-5.79-2.07S561.58,242.42,562.67,240.66Z"></path></g><path d="M595,250.36a2,2,0,0,0-.93.22,4,4,0,0,0-1.67,2.2,4.1,4.1,0,0,0-.41,2,16.41,16.41,0,0,0,.46,2.44c.44,1.75,1.06,3.73,1.83,5.91h0A156.07,156.07,0,0,1,599,289.79c.51,5.38.78,11.16,1,17.21a69.22,69.22,0,0,0,.82,9.21,32.39,32.39,0,0,0,2.91,9.08c2.32,4.82,5.4,9.12,7.64,13.7a71.92,71.92,0,0,1,4.86,13.81c1.18,4.52,2,8.88,2.67,13s1.18,7.93,1.61,11.43c.81,7,1.26,12.69,1.54,16.62.13,1.94.23,3.46.3,4.53,0,.49.05.89.06,1.18a2,2,0,0,1,0,.4,3.35,3.35,0,0,1-.05-.4l-.12-1.18c-.09-1.06-.22-2.57-.39-4.52-.35-3.92-.85-9.6-1.71-16.59-.45-3.49-1-7.32-1.66-11.39s-1.53-8.43-2.71-12.93a72.31,72.31,0,0,0-4.86-13.7c-2.21-4.54-5.3-8.83-7.65-13.71a33.11,33.11,0,0,1-3-9.21,69.13,69.13,0,0,1-.81-9.28c-.18-6-.44-11.82-.93-17.19a161.37,161.37,0,0,0-4.5-26.62v0c-.75-2.2-1.35-4.19-1.77-6a17.84,17.84,0,0,1-.43-2.49,4.26,4.26,0,0,1,.46-2.06,4,4,0,0,1,1.78-2.21,1.62,1.62,0,0,1,.72-.18A.71.71,0,0,1,595,250.36Z" style="fill:#263238"></path><path d="M642.76,206.56a6.18,6.18,0,0,1-.86.91c-.57.56-1.4,1.38-2.4,2.41a94.65,94.65,0,0,0-7.35,8.47,93.54,93.54,0,0,0-6.27,9.29c-.74,1.23-1.32,2.24-1.71,3a5.35,5.35,0,0,1-.66,1.06,5.79,5.79,0,0,1,.48-1.16c.34-.73.87-1.77,1.57-3a76.16,76.16,0,0,1,13.68-17.84c1-1,1.91-1.78,2.53-2.3A5.2,5.2,0,0,1,642.76,206.56Z" style="fill:#263238"></path><path d="M600.53,257.75a5.25,5.25,0,0,1,.45.73l1.21,2.15c.59.89,1.27,2,2.15,3.24l1.45,1.95c.51.69,1.11,1.37,1.71,2.11,2.44,2.94,5.6,6.22,9.14,9.84a111.2,111.2,0,0,1,10.89,12.37c.9,1.16,1.64,2.41,2.41,3.62.4.59.69,1.25,1,1.86s.68,1.23.95,1.87c.52,1.29,1.12,2.51,1.52,3.79s.78,2.51,1.1,3.74c.64,2.45,1.18,4.79,1.84,6.93a31.87,31.87,0,0,0,2.35,5.75,31.17,31.17,0,0,0,5.32,7.25c.75.76,1.37,1.32,1.79,1.69a5,5,0,0,1,.63.59,6,6,0,0,1-.7-.51,23.89,23.89,0,0,1-1.86-1.63,29.84,29.84,0,0,1-5.5-7.21,31,31,0,0,1-2.44-5.8c-.69-2.15-1.25-4.5-1.9-6.94-.32-1.22-.68-2.46-1.1-3.71s-1-2.46-1.51-3.73c-.27-.62-.63-1.22-.94-1.84s-.63-1.25-1-1.83c-.76-1.2-1.49-2.43-2.38-3.59A115,115,0,0,0,616.3,278.1c-3.53-3.63-6.67-7-9.08-9.93-.59-.76-1.19-1.45-1.69-2.15l-1.43-2c-.86-1.26-1.51-2.4-2.09-3.31l-1.12-2.2A4.72,4.72,0,0,1,600.53,257.75Z" style="fill:#263238"></path><path d="M606.29,369.33l-.3-.05-.88-.18c-.77-.16-1.9-.4-3.37-.65-2.94-.54-7.23-1.08-12.54-1.66a117.65,117.65,0,0,1-18.53-3.1,48.7,48.7,0,0,1-10.33-4.12,31.68,31.68,0,0,1-9.21-7.57,34.62,34.62,0,0,1-5.82-10.42A44.79,44.79,0,0,1,543,330.72a55.48,55.48,0,0,1,0-10.06,80.3,80.3,0,0,1,1.19-8.68c1-5.26,2.15-9.44,2.92-12.33.4-1.41.71-2.52.93-3.31.11-.35.2-.64.26-.86s.1-.29.11-.28a1.18,1.18,0,0,1-.06.3c0,.22-.12.51-.2.87l-.84,3.34c-.72,2.9-1.81,7.08-2.76,12.34a83.26,83.26,0,0,0-1.12,8.64,56.59,56.59,0,0,0,.07,10,45.13,45.13,0,0,0,2.37,10.74,34.12,34.12,0,0,0,5.74,10.26,31.31,31.31,0,0,0,9.06,7.45,47.86,47.86,0,0,0,10.21,4.11,120.45,120.45,0,0,0,18.44,3.19c5.31.63,9.6,1.23,12.53,1.83,1.47.29,2.6.55,3.37.75l.86.23C606.2,369.28,606.3,369.32,606.29,369.33Z" style="fill:#263238"></path><g style="opacity:0.30000000000000004"><path d="M543.74,329c-.94,12.29,7.17,23.94,17.7,30.34s24.79,6.7,36.68,8.4c-7.41,4.73-16.89,6.7-25.39,4.48s-16.06-7.33-22.14-13.67c-3.79-3.95-7.13-8.52-8.71-13.76S540.65,333.52,543.74,329Z"></path></g><path d="M617.41,341.53a20.61,20.61,0,0,1,3.3-.18c2,0,4.85-.06,7.95-.05s5.91,0,8,.11a21.12,21.12,0,0,1,3.29.22,21.61,21.61,0,0,1-3.3.15l-8,0c-3.1,0-5.91-.05-7.95-.1A20.85,20.85,0,0,1,617.41,341.53Z" style="fill:#263238"></path><path d="M624.54,370.05a17.47,17.47,0,0,1,2.75,0c1.7,0,4.05.05,6.63-.07s4.92-.38,6.6-.59a16.91,16.91,0,0,1,2.74-.28,12.33,12.33,0,0,1-2.68.64,52.1,52.1,0,0,1-6.63.75,54,54,0,0,1-6.67-.09A12.47,12.47,0,0,1,624.54,370.05Z" style="fill:#263238"></path></g><g id="freepik--character-2--inject-10"><rect x="292.42" y="98.77" width="173.85" height="329.61" style="fill:#56CA77"></rect><rect x="297.37" y="136.56" width="163.96" height="286.4" style="fill:#fff"></rect><path d="M297.37,396.69s0,.57,0,1.69,0,2.8,0,5c0,4.43,0,11,0,19.57l-.09-.09,164-.13-.22.22c0-61,0-133.83,0-211.83V136.56l.26.26-164,0,.21-.21c0,49.79-.07,90.68-.09,119.13,0,14.21,0,25.32-.06,32.88,0,3.78,0,6.66,0,8.61s0,2.95,0,2.95,0-1,0-2.95,0-4.83,0-8.61c0-7.56,0-18.67-.06-32.88,0-28.45-.05-69.34-.09-119.13v-.21h.21l164,0h.25v.26c0,24.08,0,49.05,0,74.56,0,78,0,150.81,0,211.83v.23h-.22l-164-.13h-.09V423c0-8.58,0-15.14,0-19.57,0-2.2,0-3.87,0-5S297.37,396.69,297.37,396.69Z" style="fill:#263238"></path><path d="M352.52,111.74v-1.6h-8.74v12.22h3.34v-3.62h5.31V117H354v-5.21Zm-1.74,5.4h-3.66v-5.45h3.66Z" style="fill:#fff"></path><polygon points="360.2 120.58 360.2 110.17 356.75 110.17 356.75 122.36 365.38 122.36 365.38 120.58 360.2 120.58" style="fill:#fff"></polygon><path d="M376.54,111.89v-1.82h-6.73v1.79H368V122.2l3.27.16v-3.43h3.77v3.43h3.38V111.89Zm-1.48,5.25h-3.69v-5.32h3.69Z" style="fill:#fff"></path><polygon points="387.2 110.22 387.2 115.33 383.49 115.33 383.49 110.22 380.05 110.22 380.05 115.37 381.92 115.37 381.92 117.04 383.63 117.04 383.63 122.36 387.03 122.36 387.03 117.14 388.84 117.14 388.84 115.27 390.75 115.27 390.75 110.22 387.2 110.22" style="fill:#fff"></polygon><polygon points="401.96 111.75 401.96 110.06 393.17 110.06 393.17 122.36 401.96 122.36 401.96 120.62 396.59 120.62 396.59 117.29 400.1 117.29 400.1 115.21 396.68 115.21 396.68 111.75 401.96 111.75" style="fill:#fff"></polygon><path d="M415,117.08v-5.35h-1.81v-1.47h-8.67v12l3.2.1v-3.47h3.79v3.37c0,.21,3.49,0,3.49,0v-3.45H413.2v-1.73Zm-3.32,0h-3.88v-5.34h3.88Z" style="fill:#fff"></path><polygon points="374.25 126.29 385.72 126.29 379.99 132.68 374.25 126.29" style="fill:#fff"></polygon><path d="M457.67,377.15l3.66,45.8H436.62S432,400.22,432,401.11s-4.53-78.39-5.12-76.62,28.49-18.92,28.49-18.92Z" style="fill:#a65b56"></path><path d="M346.49,232.07c-2.57-6.6-5.12-13.25-6.52-20.19s-1.6-14.26.48-21c.32-1,3.12-7.95,4.19-7.91.77,0-.84,6.44-.41,7.08,4,6.11,5.48,13.65,5.31,21a95.69,95.69,0,0,1-3.05,21.08" style="fill:#263238"></path><path d="M388.31,269c-.24-5-.41-8.94-.37-8.94s17-2.72,17.19-19.76c.07-8.24-1.16-25.2-2.46-40.54a31.76,31.76,0,0,0-31.77-29.1h-1.64c-17.73,1.1-26.71,16.77-25.11,34.47l2.8,64.19,13.65,11.54c10.25,10.88,28.51,3.06,27.71-11.87Z" style="fill:#a65b56"></path><path d="M388,260.05a41.19,41.19,0,0,1-22.22-6.48s5.28,12.7,22.29,11.1Z" style="fill:#773f3d"></path><path d="M396.14,214.42a2.44,2.44,0,0,1-2.34,2.47,2.33,2.33,0,0,1-2.52-2.19,2.43,2.43,0,0,1,2.34-2.46A2.33,2.33,0,0,1,396.14,214.42Z" style="fill:#263238"></path><path d="M399.15,206.83c-.3.32-2.15-1-4.77-1s-4.53,1.34-4.82,1c-.14-.14.17-.72,1-1.33a6.65,6.65,0,0,1,3.86-1.2,6.35,6.35,0,0,1,3.8,1.21C399,206.11,399.3,206.68,399.15,206.83Z" style="fill:#263238"></path><path d="M371.74,214.42a2.43,2.43,0,0,1-2.34,2.47,2.32,2.32,0,0,1-2.51-2.19,2.42,2.42,0,0,1,2.33-2.46A2.33,2.33,0,0,1,371.74,214.42Z" style="fill:#263238"></path><path d="M373.5,208c-.3.32-2.16-1-4.77-1s-4.54,1.33-4.82,1c-.14-.14.16-.71,1-1.32a6.66,6.66,0,0,1,3.85-1.21,6.39,6.39,0,0,1,3.8,1.21C373.37,207.27,373.64,207.84,373.5,208Z" style="fill:#263238"></path><path d="M383,228.08c0-.15,1.61-.44,4.25-.79.67-.07,1.3-.2,1.41-.66a3.35,3.35,0,0,0-.45-2l-2-5.09c-2.77-7.24-4.78-13.2-4.49-13.3s2.78,5.67,5.55,12.91l1.92,5.12a3.89,3.89,0,0,1,.35,2.62,1.63,1.63,0,0,1-1.09,1,4.7,4.7,0,0,1-1.14.17C384.63,228.21,383,228.23,383,228.08Z" style="fill:#263238"></path><path d="M373.92,203.63c-.4.65-2.89-.21-6-.47s-5.69.06-6-.65c-.11-.33.44-.9,1.56-1.38a10.43,10.43,0,0,1,9.1.86C373.65,202.66,374.09,203.32,373.92,203.63Z" style="fill:#263238"></path><path d="M398.14,203.32c-.44.61-2.26,0-4.43.07s-4,.5-4.44-.11c-.19-.3.08-.9.87-1.48a6.07,6.07,0,0,1,3.58-1.07,6.15,6.15,0,0,1,3.57,1.1C398.07,202.42,398.34,203,398.14,203.32Z" style="fill:#263238"></path><path d="M345.68,217.75c-.29-.13-11.72-3.42-11.31,8.23s12,8.83,12,8.5S345.68,217.75,345.68,217.75Z" style="fill:#a65b56"></path><path d="M342.69,230.19c-.05,0-.2.15-.53.32a2,2,0,0,1-1.52.08c-1.25-.4-2.35-2.32-2.48-4.42a6.77,6.77,0,0,1,.46-2.93,2.37,2.37,0,0,1,1.47-1.61,1,1,0,0,1,1.22.52c.17.32.1.55.17.57s.24-.21.13-.68a1.37,1.37,0,0,0-.49-.72,1.52,1.52,0,0,0-1.13-.25,2.85,2.85,0,0,0-2.06,1.88,6.83,6.83,0,0,0-.58,3.27c.15,2.35,1.43,4.5,3.14,4.93a2.17,2.17,0,0,0,1.84-.38C342.68,230.47,342.73,230.21,342.69,230.19Z" style="fill:#773f3d"></path><path d="M394.38,180.78c1.84-1.13-4.09-7-8.82-8.88-7.14-2.86-17.92-4.34-24.3-2.23-7.67,2.55-14,6.71-17.55,14s-4.69,15.55-4.1,23.62c.18,2.46.55,5,2,7,1.74,2.51,4.93,4,4.95,7.55a4.9,4.9,0,0,0,1.37,3.5c2.24,2.17,4.75-.07,5.85-2.26,2.36-4.68,2.4-10.14,2.4-15.38,0-3.72,0-7.52-1.23-11-.66-1.92-1.66-3.71-2.21-5.66a7,7,0,0,1,.57-5.85,7.22,7.22,0,0,1,.9-1,12.15,12.15,0,0,1,11.95-2.83c6.67,2,18,5,20.85,2.64,4.07-3.39,5-5.53,5-5.53Z" style="fill:#263238"></path><path d="M360.44,225.83a.2.2,0,0,0,.19.14C360.57,225.86,360.52,225.81,360.44,225.83Z" style="fill:#ff8270"></path><polygon points="360.63 225.98 360.63 225.97 360.63 225.97 360.63 225.98" style="fill:#ff8270"></polygon><path d="M373.3,219.89h-.05A0,0,0,0,0,373.3,219.89Z" style="fill:#ff8270"></path><path d="M363.89,226.15V226c.15,0,.05.23.2.17,0-.29.24,0,.29-.14,0,0,.07,0,.07.12,0-.16.07,0,.11-.08s0-.05,0-.09l.1-.06c.05,0,.06.13,0,.15a9,9,0,0,0,1.87,0c0-.12-.13,0-.18-.21s.12,0,.15-.08c0,.27.17.05.24.32l0-.15,0,.09c.33-.18.08-.08.38-.06s.24-.25.34-.18-.05-.09,0-.13c0,.13.11-.1.14,0,.05,0,.19,0,.13-.19,0,.09.16.12.09.2s.08,0,.11,0l-.05-.05c.14,0,.23.11.31-.07l-.06-.07c.09,0,.16,0,.21.15l-.09.06a.53.53,0,0,0,.35-.13h-.05c.15-.19.94-.39,1.07-.62l-.07-.14.11-.13a3.74,3.74,0,0,1-.05.42,10.6,10.6,0,0,1,1.85-.13c.1.08,0,.23,0,.25s0-.15.15-.15a.17.17,0,0,1,0,.14s.09,0,.09,0-.05-.23-.08-.34h.13V225s.06-.31.19-.25.45,0,.66,0a.2.2,0,0,1-.08.14s.07,0,.1,0c-.06-.11.09-.08,0-.13.14-.28.36,0,.49-.23s.07-4.2.06-4.49c0,0,.09,0,.1,0a.09.09,0,0,0-.14-.05v.15c-.1.06,0-.09-.13-.07,0-.13.08-.16.16-.18-.08,0-.16-.1-.18,0-.07-.05,0-.15-.09-.2s-.12.17-.2.1v0c-.17-.12-.24.21-.4.09v-.05c-.05-.07-.15,0-.25,0s.05.11,0,.13-.19,0-.28-.09l-.07.13c-.39,0-1.91.26-2.3.3v0a18.67,18.67,0,0,0-2.41.35c-.1-.12-.23-.08-.33-.11.06.05,0,.14,0,.13-.3,0,0,.09-.32.16a6.16,6.16,0,0,1-2,0c-.16.19-.38.07-.53.19v0c-.17.08-1.18,0-1.38,0l0,0c-.17.12-.16-.08-.3-.13a.32.32,0,0,1-.18.34v0a3.08,3.08,0,0,1-.42.26v-.11c-.11.12-.35.09-.43.1s-.52-.21-.78,0l-.19-.31,0,0s-.08,3.82.32,4.62v.11l.07,0c.09,0,.12-.08.12,0h-.12c.09,0,0,.09,0,.15a.15.15,0,0,1,.1.06c0-.05,0-.05,0-.07s.1-.15.16-.1,0,.18.12.18a7.64,7.64,0,0,0,1.58.11s0,0,0,.06c.16-.05.3,0,.44-.1a.4.4,0,0,1,.08.16C363,226.18,363.87,226.13,363.89,226.15Z" style="fill:#ff8270"></path><path d="M391.34,224.23c0,.12.07.14.11.16S391.39,224.22,391.34,224.23Z" style="fill:#ff8270"></path><polygon points="391.45 224.39 391.45 224.39 391.45 224.39 391.45 224.39" style="fill:#ff8270"></polygon><path d="M399.63,219.14h0A0,0,0,0,0,399.63,219.14Z" style="fill:#ff8270"></path><path d="M393.47,224.77v-.2c.09,0,0,.23.11.18,0-.28.15,0,.19-.11,0,0,0,0,0,.12,0-.16,0,0,.07-.08s0,0,0-.09l.06-.05c0,.05,0,.14,0,.15a3.46,3.46,0,0,0,1.16.15c0-.12-.08,0-.1-.22s.07,0,.09-.07c0,.27.11.07.14.34v-.15l0,.09c.21-.15.05-.07.23,0s.17-.23.23-.15a.18.18,0,0,1,0-.13c0,.13.08-.1.09,0,0,0,.12,0,.09-.19,0,.1.09.14,0,.21s.05,0,.07,0l0,0c.1,0,.14.11.2-.05l0-.08c.06,0,.1,0,.12.16l-.06.06a.27.27,0,0,0,.23-.11h0c.1-.18.6-.32.69-.55l0-.14.08-.12s0,.46,0,.42a4.1,4.1,0,0,1,1.16,0c.05.08,0,.23,0,.25s0-.15.1-.14,0,.11,0,.13.06,0,.06,0a1.52,1.52,0,0,1,0-.34h.08v.12s.06-.31.13-.25a3,3,0,0,0,.42,0,.31.31,0,0,1-.07.14s.05,0,.07,0c0-.12.05-.08,0-.13.1-.27.22,0,.31-.2s.26-4.19.27-4.48c0,0,0,0,.06,0s-.06-.1-.09-.07v.16c-.07.05,0-.09-.08-.08s.06-.16.11-.17-.09-.11-.11,0c-.05,0,0-.15-.05-.21s-.09.16-.13.09v0c-.1-.13-.16.19-.25.06v0c0-.07-.1,0-.16-.06s0,.12,0,.14-.12,0-.17-.11l-.05.13c-.24,0-1.2.13-1.44.14h0a7.19,7.19,0,0,0-1.52.19c-.06-.12-.14-.09-.2-.13s0,.14,0,.13c-.19,0,0,.09-.2.14a2.42,2.42,0,0,1-1.25-.15c-.11.18-.24,0-.34.16v-.05c-.11.07-.73-.11-.86-.05v0c-.11.11-.09-.09-.18-.15a.38.38,0,0,1-.12.33v0c-.06,0-.18.2-.27.23v-.11c-.08.12-.22.06-.27.07s-.31-.24-.48-.1l-.11-.31v0a33.94,33.94,0,0,0,0,4.63v.11l0,0c.05.06.08-.07.07,0h-.07c.05,0,0,.09,0,.15a.07.07,0,0,1,.06.06s0,0,0-.07.07-.14.1-.09,0,.18.07.19a3,3,0,0,0,1,.21s0,0,0,.06.19,0,.28-.07a.47.47,0,0,1,0,.16C392.94,224.75,393.46,224.75,393.47,224.77Z" style="fill:#ff8270"></path><path d="M388.14,235.32c0,.43-2.46.86-5.52,1s-5.55-.16-5.57-.6,2.46-.86,5.52-1S388.12,234.89,388.14,235.32Z" style="fill:#263238"></path><path d="M339.07,196.58A7.07,7.07,0,0,1,336.22,185c1-1.07,2.42-1.87,2.93-3.26.57-1.55-.17-3.23-.44-4.86a8.26,8.26,0,0,1,9.12-9.53,13.28,13.28,0,0,1,22.23-9,6.51,6.51,0,0,0,2.38,1.71c1.41.4,2.83-.43,4.21-.93a9.67,9.67,0,0,1,12.08,6.35,8.39,8.39,0,0,1,8.8,14.26c1.91,2.42,2.4,6.07.66,8.61s-5.85,3.27-8,1.08c-.54,1.59-2.94,1.8-4.23.72s-1.69-2.88-1.88-4.55a12,12,0,0,0-1.1-4.89c-1.51-2.58-4.86-3.27-7.82-3.7a66.66,66.66,0,0,0-12.68-1,22.5,22.5,0,0,0-12,3.69c-5.41,3.81-8.1,10.52-8.89,17.09" style="fill:#263238"></path><path d="M383.92,186.19a1.11,1.11,0,0,1-.58-.32,2.43,2.43,0,0,1-.66-1.77,10.36,10.36,0,0,1,.69-2.91,3.49,3.49,0,0,0,.05-1.76,3.66,3.66,0,0,0-1-1.69,11.74,11.74,0,0,0-4-2.33,29,29,0,0,0-5.22-1.49,29.49,29.49,0,0,0-12.36.33,27.51,27.51,0,0,0-11.05,5.51,29.73,29.73,0,0,0-9.47,13.91c-.51,1.55-.67,2.44-.73,2.43a2.4,2.4,0,0,1,.1-.65,18.14,18.14,0,0,1,.43-1.84,28,28,0,0,1,2.72-6.38,29.59,29.59,0,0,1,6.64-7.85,27.85,27.85,0,0,1,11.24-5.64A29.36,29.36,0,0,1,378.54,175a11.88,11.88,0,0,1,4.14,2.47,3.93,3.93,0,0,1,1.06,1.87,3.8,3.8,0,0,1-.09,1.91,11.29,11.29,0,0,0-.77,2.84,2.47,2.47,0,0,0,.53,1.7A3.33,3.33,0,0,0,383.92,186.19Z" style="fill:#455a64"></path><path d="M345.13,206.88c0,.14-.9,0-1.91-.3s-1.81-.66-1.77-.8.9,0,1.92.3S345.17,206.74,345.13,206.88Z" style="fill:#455a64"></path><path d="M345.32,204.28c0,.14-.66,0-1.37-.21s-1.25-.57-1.2-.71.66,0,1.37.22S345.37,204.15,345.32,204.28Z" style="fill:#455a64"></path><path d="M346.61,201.34c-.1.1-.68-.36-1.29-1s-1-1.28-.92-1.37.69.35,1.3,1S346.72,201.24,346.61,201.34Z" style="fill:#455a64"></path><path d="M319.73,315.42l22,78.68V423s58.11.28,66.24,0,25,0,25,0l-3.81-88.2V268.06l-41.84-3s-33.29,5.73-40.37,3l-30.49,39.2Z" style="fill:#a65b56"></path><path d="M446.18,271.45c-4-4.76-8.44-9.47-14.14-12s-13-2.32-17.52,2c-.52-2.25-1-4.5-1.55-6.75-3.06,2.53-4.85,7.77-5.56,11.68l.06.45c8.15,12.68,10.38,26,4.51,39.91-4.36,10.33-13.29,17.91-21.92,25.09L343.5,370.63c-7.28,6.06-14.67,12.24-20,20.1s-8.28,17.8-5.82,26.95c1.49,5.56,3,5.26,3,5.26,2-.13,20.57.94,22.37.14,20.78-9.3,33.86-15.17,51.84-29.12,20.77-16.12,36.63-37.59,52.22-58.77,6.73-9.15,13.74-19.05,14.19-30.4C461.81,292.3,454.25,281,446.18,271.45Z" style="fill:#263238"></path><path d="M428.94,291.24a12,12,0,0,1-.95-2.17c-.55-1.36-1.35-3.2-2.37-5.18s-2.07-3.7-2.85-4.94a13.93,13.93,0,0,1-1.23-2,8.6,8.6,0,0,1,1.53,1.83,38.7,38.7,0,0,1,5.26,10.19A9.28,9.28,0,0,1,428.94,291.24Z" style="fill:#455a64"></path><path d="M431.93,297.08c-.17,0-.18-3.27-1.15-7.15s-2.43-6.8-2.28-6.87a7,7,0,0,1,1.07,1.85,26.11,26.11,0,0,1,1.72,4.89,25.81,25.81,0,0,1,.73,5.13A7.39,7.39,0,0,1,431.93,297.08Z" style="fill:#455a64"></path><path d="M434.56,299.05a62,62,0,0,0-.3-7.1,62.82,62.82,0,0,0-1.64-6.91,6.87,6.87,0,0,1,.91,1.9,23.18,23.18,0,0,1,1.25,4.94,23.84,23.84,0,0,1,.15,5.09A6.92,6.92,0,0,1,434.56,299.05Z" style="fill:#455a64"></path><path d="M452.06,306.73c-.09,0,.19-1.78,0-4.68a27.24,27.24,0,0,0-3.15-11l.49-.17c.12.74.23,1.53.32,2.33a33.85,33.85,0,0,1,0,6.6l-.16,1.68-.32-1.65a49.1,49.1,0,0,0-2.38-8.31c-.38-1-.7-1.77-.92-2.31a4.29,4.29,0,0,1-.32-.84,3.44,3.44,0,0,1,.46.77c.27.52.64,1.28,1.06,2.27a43,43,0,0,1,2.58,8.32l-.48,0a35.55,35.55,0,0,0-.05-6.51c-.08-.79-.19-1.56-.31-2.29l-.27-1.57.75,1.4a26.13,26.13,0,0,1,3,11.22,22.69,22.69,0,0,1-.12,3.46A5.44,5.44,0,0,1,452.06,306.73Z" style="fill:#455a64"></path><path d="M432.22,263.92a21.48,21.48,0,0,0-4.12-1.45,21.94,21.94,0,0,0-4.36-.07,6.8,6.8,0,0,1,4.45-.44A6.88,6.88,0,0,1,432.22,263.92Z" style="fill:#455a64"></path><path d="M433.4,267.88a36.91,36.91,0,0,0-4.76-2.08,36.31,36.31,0,0,0-5.11-.86,12,12,0,0,1,9.87,2.94Z" style="fill:#455a64"></path><path d="M340.65,400.81a17.65,17.65,0,0,1,.52-3.25,76.21,76.21,0,0,1,2.07-7.68,74.84,74.84,0,0,1,2.87-7.42,17,17,0,0,1,1.51-2.93,26.4,26.4,0,0,1-1.17,3.07c-.75,1.89-1.75,4.5-2.71,7.44s-1.71,5.64-2.21,7.6A24.67,24.67,0,0,1,340.65,400.81Z" style="fill:#455a64"></path><path d="M347.79,401.41A28.23,28.23,0,0,1,349.17,390c.15,0-.39,2.56-.76,5.71S348,401.41,347.79,401.41Z" style="fill:#455a64"></path><path d="M351.54,401.61a36.75,36.75,0,0,1,0-11.84,56.17,56.17,0,0,1,.06,5.92A56.79,56.79,0,0,1,351.54,401.61Z" style="fill:#455a64"></path><path d="M356.88,401a12.53,12.53,0,0,1-1.86-4.66,12.73,12.73,0,0,1-.38-5c.16,0,.27,2.23.89,4.88S357,401,356.88,401Z" style="fill:#455a64"></path><path d="M386.15,322.64a76.29,76.29,0,0,1-2.71-8.33,72,72,0,0,1-2.22-8.47,75.92,75.92,0,0,1,2.72,8.32A72.9,72.9,0,0,1,386.15,322.64Z" style="fill:#773f3d"></path><path d="M345.66,354.54a5.94,5.94,0,0,1-2,.2,18.6,18.6,0,0,1-9.34-2.6,6.06,6.06,0,0,1-1.63-1.21,39.92,39.92,0,0,0,6.27,2.63A39,39,0,0,0,345.66,354.54Z" style="fill:#773f3d"></path><path d="M363.85,273a10.44,10.44,0,0,1-2.49,1,34.7,34.7,0,0,1-6.31,1.3,35.6,35.6,0,0,1-6.44.11,10.65,10.65,0,0,1-2.63-.41,19.37,19.37,0,0,1,2.65,0,46.25,46.25,0,0,0,12.63-1.39A19.92,19.92,0,0,1,363.85,273Z" style="fill:#773f3d"></path><path d="M398.6,271.3a14.57,14.57,0,0,1-2.86.89c-1.79.46-4.29,1-7.09,1.44a72,72,0,0,1-7.18.76,16,16,0,0,1-3,0,19.21,19.21,0,0,1,3-.38c1.83-.2,4.36-.49,7.14-.92s5.27-.91,7.07-1.28A20.28,20.28,0,0,1,398.6,271.3Z" style="fill:#773f3d"></path><path d="M430.81,373a6.72,6.72,0,0,1,.19,1.36c.08.88.18,2.16.28,3.74.2,3.16.36,7.52.48,12.34s.24,9.09.33,12.35c0,1.5.08,2.75.11,3.74a6.62,6.62,0,0,1,0,1.37,7.15,7.15,0,0,1-.18-1.36c-.09-.88-.18-2.16-.28-3.74-.2-3.15-.37-7.52-.48-12.34s-.24-9.08-.33-12.34c-.05-1.5-.08-2.76-.11-3.74A7.34,7.34,0,0,1,430.81,373Z" style="fill:#773f3d"></path><path d="M349,264.85l-29.54,13.9s-19.08,5.49-23.71,24.54-8.44,24-8.44,24-14.16,29.67-14.16,34.85c0,0-9.8,29.67,1.64,33.48s58-5.17,58-5.17l-3.26-28-17.79-.12s6.3-9,11.8-17.58A37.08,37.08,0,0,0,329,329.16Z" style="fill:#a65b56"></path><path d="M327.16,313a42.93,42.93,0,0,1-3.26,5.36,27.76,27.76,0,0,1-5,5.44,15.72,15.72,0,0,1-8.94,3.69,12.81,12.81,0,0,1-5.64-.8,10.26,10.26,0,0,1-2.64-1.56,10,10,0,0,1-2.09-2.39,13.93,13.93,0,0,1-1.93-6.33,29.63,29.63,0,0,1,.36-7,32.55,32.55,0,0,1,1.89-7.11,19.56,19.56,0,0,1,4.14-6.48,14.53,14.53,0,0,1,7-3.88,10.74,10.74,0,0,1,8,1.14,11.16,11.16,0,0,1,4.82,6.58,12.6,12.6,0,0,1-.6,7.92A13.34,13.34,0,0,1,311.62,316c-4.93.14-9.33-3.55-10-7.88a8.08,8.08,0,0,1,1.42-6,7.78,7.78,0,0,1,4.66-3.23,6.43,6.43,0,0,1,5,1,5,5,0,0,1,2.17,4,4.05,4.05,0,0,1-1.75,3.54,3.93,3.93,0,0,1-3.31.5,3,3,0,0,1-1.92-1.85,3.45,3.45,0,0,1-.15-2,2.68,2.68,0,0,1,.53-1.09,2,2,0,0,1,.29-.29,3,3,0,0,0-.72,1.4,3.32,3.32,0,0,0,.2,1.89,2.86,2.86,0,0,0,1.83,1.72,3.7,3.7,0,0,0,3.11-.52,3.79,3.79,0,0,0,1.6-3.32,4.7,4.7,0,0,0-2.07-3.75,6.12,6.12,0,0,0-4.78-.9,7.4,7.4,0,0,0-4.41,3.09A7.7,7.7,0,0,0,302,308c.69,4.1,4.92,7.63,9.61,7.48a12.86,12.86,0,0,0,11.23-8.17,12.12,12.12,0,0,0,.57-7.6,10.66,10.66,0,0,0-4.59-6.27,10.2,10.2,0,0,0-7.67-1.07,14,14,0,0,0-6.7,3.73,19.12,19.12,0,0,0-4,6.3,32.49,32.49,0,0,0-1.87,7,29.28,29.28,0,0,0-.39,6.88,13.57,13.57,0,0,0,1.84,6.14,10,10,0,0,0,2,2.3,10.18,10.18,0,0,0,2.53,1.5,12.43,12.43,0,0,0,5.46.82,15.55,15.55,0,0,0,8.79-3.55,28.1,28.1,0,0,0,5-5.34c1.18-1.63,2-3,2.56-3.86.27-.44.47-.78.63-1A2.58,2.58,0,0,1,327.16,313Z" style="fill:#263238"></path><path d="M333,322.88A93.14,93.14,0,0,1,329.4,332a91.11,91.11,0,0,1-4,8.93,96.3,96.3,0,0,1,3.57-9.14A94,94,0,0,1,333,322.88Z" style="fill:#773f3d"></path><path d="M294.19,365.8a8.43,8.43,0,0,1,2.22-1.35,23.19,23.19,0,0,1,6-2,23.43,23.43,0,0,1,6.27-.32,9.1,9.1,0,0,1,2.56.46,30.86,30.86,0,0,0-17,3.17Z" style="fill:#773f3d"></path><path d="M389.29,321.34,325.12,423l17.93.13L404.49,332S395.69,322.67,389.29,321.34Z" style="fill:#455a64"></path><path d="M392.45,322.5l9.37-15.3,52.26,30.13s-21.61,45.75-51.33,53.41l-4.66-6.21s21.6-18,20-33.93-9.33-23.07-11.2-23l-2.4,4.37Z" style="fill:#e0e0e0"></path><path d="M392.45,322.5s.29.2.83.61l2.35,1.82,8.94,7-.19,0,2.39-4.38,0-.08h.07a1.9,1.9,0,0,1,.76.2,3.29,3.29,0,0,1,.66.37,8.42,8.42,0,0,1,1.2,1,18.16,18.16,0,0,1,2.12,2.39,29.46,29.46,0,0,1,3.4,6,43,43,0,0,1,3.34,15.44,24.45,24.45,0,0,1-2,8.62,45.47,45.47,0,0,1-4.55,8.24,82.11,82.11,0,0,1-13.57,15l0-.34,4.66,6.21-.26-.1a46,46,0,0,0,13-5.9,74.41,74.41,0,0,0,11.6-9.47,127.15,127.15,0,0,0,15.23-18.56,163.58,163.58,0,0,0,11.35-19.33l.1.31-52.2-30.22.18-.05-7,11.27c-.81,1.28-1.42,2.27-1.84,2.94l-.48.76c-.11.17-.18.26-.18.26a2.93,2.93,0,0,1,.14-.26l.44-.75,1.78-2.95,6.9-11.4.07-.12.11.07,52.31,30,.2.12-.1.2a162.47,162.47,0,0,1-11.37,19.41,126.2,126.2,0,0,1-15.28,18.64A75.18,75.18,0,0,1,416,385a46.72,46.72,0,0,1-13.15,6l-.16,0-.1-.14-4.66-6.21-.14-.19.18-.15a82.18,82.18,0,0,0,13.51-14.88,45.53,45.53,0,0,0,4.52-8.14,24.07,24.07,0,0,0,2-8.47,42.41,42.41,0,0,0-3.25-15.29,29.13,29.13,0,0,0-3.33-6,18.24,18.24,0,0,0-2.06-2.36,5.05,5.05,0,0,0-2.4-1.47l.11-.07-2.41,4.36-.07.13-.12-.09-8.9-7.12-2.3-1.85Z" style="fill:#263238"></path><path d="M429.1,358c-.14,0-.14-4.82,0-10.76s.4-10.75.54-10.75.14,4.82,0,10.76S429.24,358,429.1,358Z" style="fill:#fff"></path><path d="M432,362.65a18.44,18.44,0,0,1,0-3c.07-2,.15-4.46.25-7.18s.12-5.19.16-7.19a16.9,16.9,0,0,1,.16-3,15.51,15.51,0,0,1,.21,3c.06,1.84.07,4.39,0,7.2s-.24,5.36-.41,7.19A16.37,16.37,0,0,1,432,362.65Z" style="fill:#fff"></path><path d="M424.45,344.66a60.56,60.56,0,0,1-.45-7.8,56.63,56.63,0,0,1,.07-7.82,60.82,60.82,0,0,1,.45,7.81A56.52,56.52,0,0,1,424.45,344.66Z" style="fill:#fff"></path><path d="M372.32,349c-.73.15-11.27,1.73-11.27,1.73s-10.39,9.24-10.82,9.39S339,362.25,339,362.25l8,26.86,6.45-2.46s9.39,1.59,15,.87,11.4-3,11.4-4.91v-2.45s3-2.31,3.18-5.35c0,0,7.07-2.45,7.36-5.05s-2.6-4.47-2.6-4.47,5.49-3.9,4.77-6.5a6.48,6.48,0,0,0-3.44-3.76L370,354.75Z" style="fill:#a65b56"></path><path d="M372.32,349l-.13.36c-.11.27-.24.63-.42,1.1l-1.67,4.35-.09-.13,19.08.2h.07a7.35,7.35,0,0,1,2.56,2,5.51,5.51,0,0,1,.86,1.47,2.53,2.53,0,0,1,.08,1.78,8,8,0,0,1-2,3,22.54,22.54,0,0,1-2.79,2.42v-.37a6.82,6.82,0,0,1,2.35,2.66,3.85,3.85,0,0,1,.37,1.84,2.89,2.89,0,0,1-.84,1.74,12.49,12.49,0,0,1-3.13,2.16,30.68,30.68,0,0,1-3.55,1.55l.16-.22a6.29,6.29,0,0,1-1,3,10.31,10.31,0,0,1-2.22,2.5l.09-.2c0,.84,0,1.66,0,2.54a2,2,0,0,1-.71,1.25,6.35,6.35,0,0,1-1.07.8,20.36,20.36,0,0,1-4.92,2,32.44,32.44,0,0,1-5.33,1.06,36.7,36.7,0,0,1-5.55.08,90.19,90.19,0,0,1-9.12-1h.13L347,389.35l-.26.09-.07-.26c-2.9-9.78-5.59-18.87-7.95-26.86l-.07-.24.23,0,7.5-1.42,3.48-.66c.14,0,.3,0,.36-.12s.21-.17.32-.25l.65-.53,1.25-1.06,8.49-7.39,0,0h0l8.42-1.21,2.15-.3.54-.07.18,0-.2,0-.57.1-2.18.36-8.3,1.36.07,0c-2.34,2.1-5.16,4.62-8.42,7.47l-1.26,1.07-.65.55c-.12.09-.2.17-.35.27a.85.85,0,0,1-.44.16l-3.49.68L339,362.47l.16-.28,8,26.84-.33-.16,6.45-2.46.06,0h.08a85.69,85.69,0,0,0,9.06,1,35.46,35.46,0,0,0,5.46-.08,32.72,32.72,0,0,0,5.25-1,20.23,20.23,0,0,0,4.79-1.95,6.23,6.23,0,0,0,1-.74,1.61,1.61,0,0,0,.56-.91c0-.82,0-1.69,0-2.51V380l.1-.08a7.78,7.78,0,0,0,3.09-5.16v-.16l.16-.06a29.38,29.38,0,0,0,3.49-1.51,11.88,11.88,0,0,0,3-2.05,2.38,2.38,0,0,0,.73-1.45,3.48,3.48,0,0,0-.32-1.62,6.62,6.62,0,0,0-2.18-2.48l-.26-.18.26-.19a22.18,22.18,0,0,0,2.73-2.35,7.84,7.84,0,0,0,1.9-2.79,3.24,3.24,0,0,0-.86-2.88,6.84,6.84,0,0,0-2.4-1.87h.07L370,354.85h-.14l.05-.13,1.77-4.24c.19-.47.35-.84.46-1.11S372.31,349,372.32,349Z" style="fill:#773f3d"></path><path d="M341.22,361.39l-19.84.75s-24.72,21.63-24,30.72,3.74,11.51,8.52,12.56c7.5,1.64,41.05-16.31,41.05-16.31Z" style="fill:#455a64"></path><path d="M325.62,380.41a2,2,0,1,1-2.05,2A2,2,0,0,1,325.62,380.41Z" style="fill:#e0e0e0"></path><path d="M325.62,380.41a2.73,2.73,0,0,0-1.48.92,1.87,1.87,0,0,0-.22,1.73,1.81,1.81,0,0,0,3.39,0,1.87,1.87,0,0,0-.21-1.73,2.73,2.73,0,0,0-1.48-.92s.18-.09.52,0a2.05,2.05,0,0,1,1.25.73,2.21,2.21,0,0,1,.37,2.13,2.29,2.29,0,0,1-2.14,1.53,2.31,2.31,0,0,1-2.15-1.53,2.23,2.23,0,0,1,.38-2.13,2.05,2.05,0,0,1,1.25-.73C325.44,380.32,325.62,380.38,325.62,380.41Z" style="fill:#263238"></path><path d="M328.13,391.36a2,2,0,1,1-2,2A2,2,0,0,1,328.13,391.36Z" style="fill:#e0e0e0"></path><path d="M328.13,391.36a2.73,2.73,0,0,0-1.48.92,1.89,1.89,0,0,0-.21,1.74,1.81,1.81,0,0,0,3.39,0,1.89,1.89,0,0,0-.22-1.74,2.73,2.73,0,0,0-1.48-.92s.18-.09.52,0a2.05,2.05,0,0,1,1.25.73,2.24,2.24,0,0,1,.38,2.13,2.27,2.27,0,0,1-4.29,0,2.21,2.21,0,0,1,.37-2.13,2.05,2.05,0,0,1,1.25-.73C328,391.27,328.13,391.33,328.13,391.36Z" style="fill:#263238"></path><path d="M312.5,384.7a2,2,0,1,1-2,2A2,2,0,0,1,312.5,384.7Z" style="fill:#e0e0e0"></path><path d="M312.5,384.7a2.69,2.69,0,0,0-1.47.92,1.82,1.82,0,1,0,3,0,2.66,2.66,0,0,0-1.48-.92s.19-.09.53,0a2.08,2.08,0,0,1,1.25.73,2.24,2.24,0,0,1,.37,2.13,2.27,2.27,0,0,1-4.29,0,2.21,2.21,0,0,1,.37-2.13,2.08,2.08,0,0,1,1.25-.73C312.32,384.61,312.51,384.67,312.5,384.7Z" style="fill:#263238"></path><path d="M315,395.65a2,2,0,1,1-2,2A2,2,0,0,1,315,395.65Z" style="fill:#e0e0e0"></path><path d="M315,395.65a2.66,2.66,0,0,0-1.48.92,1.82,1.82,0,1,0,2.95,0,2.69,2.69,0,0,0-1.47-.92s.18-.08.52,0a2.08,2.08,0,0,1,1.25.73,2.21,2.21,0,0,1,.37,2.13,2.27,2.27,0,0,1-4.29,0,2.24,2.24,0,0,1,.37-2.13,2.08,2.08,0,0,1,1.25-.73C314.83,395.57,315,395.62,315,395.65Z" style="fill:#263238"></path><path d="M325.62,368.4a2,2,0,1,1-2.05,2A2,2,0,0,1,325.62,368.4Z" style="fill:#e0e0e0"></path><path d="M325.62,368.4a2.73,2.73,0,0,0-1.48.92,1.89,1.89,0,0,0-.22,1.74,1.81,1.81,0,0,0,3.39,0,1.89,1.89,0,0,0-.21-1.74,2.73,2.73,0,0,0-1.48-.92s.18-.08.52,0a2.05,2.05,0,0,1,1.25.73,2.21,2.21,0,0,1,.37,2.13,2.27,2.27,0,0,1-4.29,0,2.24,2.24,0,0,1,.38-2.13,2.05,2.05,0,0,1,1.25-.73C325.44,368.32,325.62,368.37,325.62,368.4Z" style="fill:#263238"></path><path d="M337,367.94a2,2,0,1,1-2-2.05A2,2,0,0,1,337,367.94Z" style="fill:#e0e0e0"></path><path d="M337,367.94a2.74,2.74,0,0,0-.91-1.48,1.89,1.89,0,0,0-1.74-.22,1.81,1.81,0,0,0,0,3.39,1.89,1.89,0,0,0,1.74-.21,2.74,2.74,0,0,0,.91-1.48s.09.18,0,.52a2.08,2.08,0,0,1-.73,1.25,2.21,2.21,0,0,1-2.13.37,2.27,2.27,0,0,1,0-4.29,2.23,2.23,0,0,1,2.13.38,2.06,2.06,0,0,1,.73,1.24C337,367.76,337,367.94,337,367.94Z" style="fill:#263238"></path><path d="M339.46,379.92a2,2,0,1,1-2-2A2.05,2.05,0,0,1,339.46,379.92Z" style="fill:#e0e0e0"></path><path d="M339.46,379.92a2.8,2.8,0,0,0-.92-1.48,1.89,1.89,0,0,0-1.74-.21,1.82,1.82,0,1,0,1.74,3.17,2.73,2.73,0,0,0,.92-1.48s.08.19,0,.53a1.94,1.94,0,0,1-.73,1.24,2.19,2.19,0,0,1-2.12.38,2.27,2.27,0,0,1,0-4.29,2.19,2.19,0,0,1,2.12.37,2,2,0,0,1,.73,1.25C339.54,379.74,339.49,379.92,339.46,379.92Z" style="fill:#263238"></path><path d="M342.21,388.79a2,2,0,1,1-2-2.05A2,2,0,0,1,342.21,388.79Z" style="fill:#e0e0e0"></path><path d="M342.21,388.79a2.73,2.73,0,0,0-.92-1.48,1.82,1.82,0,1,0,0,2.95,2.76,2.76,0,0,0,.92-1.47s.08.18,0,.52a2,2,0,0,1-.73,1.25,2.19,2.19,0,0,1-2.12.37,2.27,2.27,0,0,1,0-4.29,2.21,2.21,0,0,1,2.12.37,2,2,0,0,1,.73,1.25C342.29,388.6,342.24,388.79,342.21,388.79Z" style="fill:#263238"></path><rect x="283.91" y="405.53" width="186.86" height="65.62" rx="32.81" style="fill:#fff"></rect><path d="M438,471.15l1.15-.09,1.43-.08a13.2,13.2,0,0,0,1.95-.24A32.71,32.71,0,0,0,462,460.48a32.34,32.34,0,0,0,6.06-9.34,32.94,32.94,0,0,0,2.58-12.5,31.9,31.9,0,0,0-3-13.95,32.26,32.26,0,0,0-9.81-12.22c-.55-.41-1.1-.84-1.67-1.23s-1.19-.73-1.79-1.09c-.3-.18-.59-.38-.91-.54l-.95-.46c-.64-.3-1.28-.63-1.93-.91a36,36,0,0,0-4.11-1.36c-.71-.17-1.41-.39-2.13-.52l-2.19-.33a16.35,16.35,0,0,0-2.22-.19c-.75,0-1.49-.09-2.25-.09H404l-87.3,0a32.47,32.47,0,0,0-32.22,37c.16.88.21,1.77.45,2.62l.66,2.57.9,2.47c.28.84.74,1.59,1.09,2.39a33.38,33.38,0,0,0,6,8.38,34.38,34.38,0,0,0,8.1,6,32.61,32.61,0,0,0,9.3,3.17l2.4.36,2.41.13c1.59.09,3.2,0,4.79.05h18.49l33.2,0,48.06.08,13.07,0,3.4,0,1.16,0-1.16,0-3.4,0-13.07.05-48.06.08-33.2,0H320.59c-1.59,0-3.18.05-4.81,0l-2.44-.12-2.43-.37a32.83,32.83,0,0,1-9.44-3.2,35.21,35.21,0,0,1-8.23-6.05,34.26,34.26,0,0,1-6.08-8.51c-.36-.81-.82-1.58-1.1-2.42s-.61-1.67-.92-2.51-.44-1.74-.67-2.61-.3-1.77-.46-2.66a33.73,33.73,0,0,1,.27-10.88,33.07,33.07,0,0,1,32.45-26.73l87.3,0h33.58c.76,0,1.52.07,2.28.1a16.93,16.93,0,0,1,2.25.19l2.21.34c.74.14,1.44.36,2.16.53a36.24,36.24,0,0,1,4.16,1.39c.66.28,1.3.62,1.95.92l1,.47c.31.16.61.36.92.54l1.81,1.11c.58.4,1.13.83,1.69,1.25a32.6,32.6,0,0,1,9.89,12.38,32.21,32.21,0,0,1,3,14.11,33.12,33.12,0,0,1-2.64,12.62,32.67,32.67,0,0,1-6.15,9.39,32.7,32.7,0,0,1-19.62,10.2,12.75,12.75,0,0,1-2,.2l-1.42.06Z" style="fill:#263238"></path><rect x="292.23" y="412.16" width="170.23" height="52.36" rx="26.18" style="fill:#56CA77"></rect><path d="M342.25,443.93l1-2.31a7.8,7.8,0,0,0,4.37,1.38c1.81,0,2.55-.6,2.55-1.42,0-2.48-7.7-.77-7.7-5.69,0-2.26,1.82-4.13,5.58-4.13a8.93,8.93,0,0,1,4.6,1.17l-.95,2.33a7.46,7.46,0,0,0-3.67-1c-1.81,0-2.51.68-2.51,1.52,0,2.44,7.7.75,7.7,5.61,0,2.22-1.84,4.11-5.62,4.11A9.41,9.41,0,0,1,342.25,443.93Z" style="fill:#fff"></path><path d="M365.62,442.77v2.46H355.36V432h10v2.46h-7v2.87h6.15v2.39h-6.15v3.06Z" style="fill:#fff"></path><path d="M368.06,432h3.06v10.75h6.65v2.49h-9.71Z" style="fill:#fff"></path><path d="M389.74,442.77v2.46H379.49V432h10v2.46h-7v2.87h6.15v2.39h-6.15v3.06Z" style="fill:#fff"></path><path d="M391.32,438.61c0-4,3.06-6.85,7.19-6.85a6.82,6.82,0,0,1,5.45,2.35l-2,1.82a4.25,4.25,0,0,0-3.33-1.56,4.24,4.24,0,1,0,0,8.48,4.23,4.23,0,0,0,3.33-1.57l2,1.82a6.81,6.81,0,0,1-5.47,2.36C394.38,445.46,391.32,442.6,391.32,438.61Z" style="fill:#fff"></path><path d="M408.63,434.49H404.4V432h11.54v2.5H411.7v10.74h-3.07Z" style="fill:#fff"></path><path d="M434.36,461.68c0,.14-26.2.26-58.51.26s-58.52-.12-58.52-.26,26.19-.26,58.52-.26S434.36,461.54,434.36,461.68Z" style="fill:#263238"></path><path d="M456.6,428.58a6.2,6.2,0,0,1,.48,1.35,21.12,21.12,0,0,1,.7,3.83A23.5,23.5,0,0,1,447,455.85a21.06,21.06,0,0,1-3.46,1.81,5.89,5.89,0,0,1-1.35.46,45.51,45.51,0,0,0,4.6-2.57,24.07,24.07,0,0,0,10.61-21.76A43.39,43.39,0,0,0,456.6,428.58Z" style="fill:#263238"></path><g style="opacity:0.12"><path d="M366.48,420.77c-.62-2.11-5.77-3.68-8.19-3.9a190.67,190.67,0,0,0-37.21.28A20.7,20.7,0,0,0,317,418a32.93,32.93,0,0,0-8.47,3.67c-3.83,2.51-6.88,6.7-6.28,11.49a7.57,7.57,0,0,0,5.21,6.43c4.79,1.4,9-2.69,13.21-5.3,5.76-3.6,12.78-4.6,19.58-4.78,7.33-.19,14.7.46,22-.72a4.63,4.63,0,0,0,2.88-1.61A6.67,6.67,0,0,0,366.48,420.77Z" style="fill:#fff"></path></g><g style="opacity:0.12"><path d="M447.14,423.38a8.34,8.34,0,0,0-8.48,2,14,14,0,0,0-3.84,8.18c-.38,2.56-.39,5.4-2.11,7.34s-4.7,2.29-7.27,3a10.55,10.55,0,0,0-5.07,3,5.8,5.8,0,0,0-1.29,5.55c.91,2.61,3.9,3.85,6.63,4.24a22,22,0,0,0,21.15-9.57c4.45-6.85,8.59-16.48.28-23.79" style="fill:#fff"></path></g></g><g id="freepik--character-1--inject-10"><rect x="79.42" y="130.25" width="153.06" height="274.58" style="fill:#e0e0e0"></rect><rect x="83.78" y="147.91" width="144.35" height="252.14" style="fill:#fff"></rect><path d="M228.13,400.05c0-2.21-.1-104.45-.25-252.14l.25.24-144.33,0h0l.26-.26C84,244.24,84,332.53,84,400.05l-.2-.2,144.35.2-144.35.2h-.2v-.2c0-67.52,0-155.81-.06-252.14v-.26H228.37v.25C228.23,295.6,228.13,397.84,228.13,400.05Z" style="fill:#263238"></path><path d="M74.82,316.35l9.59,10,3,.64s6.55.15,9-2.9,3.45-8.47,3.45-8.47l-.84-9L88.43,296.28Z" style="fill:#fcac9b"></path><path d="M101.29,298.93s42.33-61.13,67.81-93.75c24.49-31.36,70.76-85.58,70.76-85.58a16.82,16.82,0,0,0-15.77,4.49c-7.11,7-24.08,26.1-66.69,79.94C135.23,232,94.06,295,94.06,295Z" style="fill:#e0e0e0"></path><path d="M101.29,298.93s-.56-.28-1.75-.92L94,295l-.08-.05,0-.08c3.43-5.3,9.15-14,16.84-25.51s17.31-25.71,28.77-41.85c5.74-8.07,11.93-16.62,18.84-25.33s14.15-17.83,21.77-27.27,15.58-19.18,23.93-29.08c4.19-4.94,8.47-9.93,12.93-14.86,2.23-2.47,4.5-4.93,6.91-7.3a18.75,18.75,0,0,1,4.16-3,16.6,16.6,0,0,1,4.91-1.63,17,17,0,0,1,6.91.2l.54.13-.37.44c-20.39,24-39.62,46.91-56.75,68s-31.64,40.7-43.67,57.27-21.56,30.08-28.16,39.4L104,295.21,102,298c-.46.64-.7.94-.7.94s.21-.34.64-1l1.92-2.82,7.48-10.81c6.53-9.36,16-22.91,28-39.53s26.35-36.36,43.57-57.38,36.32-44,56.72-68l.16.56a16.5,16.5,0,0,0-6.59-.18,16.07,16.07,0,0,0-4.7,1.57,17.54,17.54,0,0,0-4,2.9c-2.38,2.34-4.65,4.8-6.88,7.26-4.46,4.92-8.73,9.9-12.92,14.84-8.35,9.89-16.32,19.63-23.95,29.05s-14.9,18.54-21.8,27.24-13.11,17.21-18.87,25.26c-11.49,16.11-21.16,30.31-28.9,41.75s-13.49,20.12-17,25.39l0-.13,5.43,3C100.72,298.59,101.29,298.93,101.29,298.93Z" style="fill:#263238"></path><rect x="96.09" y="288.93" width="8.27" height="8.4" transform="translate(181.8 -5.73) rotate(34.14)" style="fill:#455a64"></rect><path d="M230.16,122.84a3.23,3.23,0,0,1-.34.42c-.25.3-.59.7-1,1.2l-4,4.57c-1.75,2-3.9,4.38-6.33,7.24s-5.27,6-8.27,9.68c-6.09,7.21-13.22,15.9-21,25.68s-16.11,20.66-24.72,32.19c-17.23,23.09-32.4,44.31-43.49,59.59-5.55,7.6-10.05,13.76-13.18,18.06-1.56,2.09-2.77,3.73-3.62,4.88l-1,1.26a2.56,2.56,0,0,1-.35.41,3.69,3.69,0,0,1,.29-.45c.22-.33.52-.76.9-1.3l3.52-5,13-18.19c11-15.35,26.1-36.62,43.33-59.72,8.62-11.54,17-22.4,24.78-32.17s14.95-18.43,21.09-25.6c3-3.62,5.89-6.79,8.35-9.62s4.64-5.22,6.42-7.17l4.12-4.47,1.08-1.16A3.12,3.12,0,0,1,230.16,122.84Z" style="fill:#263238"></path><rect x="24.22" y="332.1" width="93.36" height="8.96" transform="translate(-247.46 206.35) rotate(-55.86)" style="fill:#455a64"></rect><polygon points="81.3 321.24 75.93 325.6 74.19 331.89 79.57 327.69 81.3 321.24" style="fill:#fafafa"></polygon><polygon points="73.21 333.17 67.84 337.53 66.1 343.82 71.48 339.62 73.21 333.17" style="fill:#fafafa"></polygon><polygon points="64.86 345.48 59.49 349.84 57.75 356.13 63.13 351.93 64.86 345.48" style="fill:#fafafa"></polygon><polygon points="56.51 357.79 51.14 362.15 49.41 368.45 54.79 364.24 56.51 357.79" style="fill:#fafafa"></polygon><polygon points="48.16 370.11 43.05 374.09 46.51 376.44 48.16 370.11" style="fill:#fafafa"></polygon><polygon points="99.67 294.15 94.3 298.51 92.56 304.81 97.94 300.61 99.67 294.15" style="fill:#fafafa"></polygon><rect x="84.92" y="296.62" width="25.48" height="1.54" transform="translate(183.74 -3.55) rotate(34.14)" style="fill:#263238"></rect><path d="M90.77,303s6.26-2,6.86-1.71a29.69,29.69,0,0,1,3.24,3.25s-.5,5.24-2.45,5.38a3.18,3.18,0,0,1-2.85-1.27s-4.31,1.85-5.74.62S84.77,306,90.77,303Z" style="fill:#fcac9b"></path><path d="M87.28,293.48s-3-1.08-4.28.83a11.13,11.13,0,0,0-1.64,3.79l.29,2.31s-1.55-.25-2.73,2.66l0,2s-3,1.53-3.19,2.75a7.71,7.71,0,0,0,.16,2.5l-2.28,3.36c-.43.64,1.23,2.69,1.23,2.69s10.91,7,12.28,6.07,2.16-2.12,2-2.91,1.79.95,3.17-1.57c.88-1.6-.59-3.71-.59-3.71s4.76-.75,4.1-2.13a13.42,13.42,0,0,0-2-2.81S90.31,295.27,87.28,293.48Z" style="fill:#fcac9b"></path><path d="M87.28,293.48a1.05,1.05,0,0,1,.26.16,2.67,2.67,0,0,1,.67.61A12.63,12.63,0,0,1,90,297.16a73.65,73.65,0,0,1,4.27,11.63v0a10.49,10.49,0,0,1,.85,4.05,2.17,2.17,0,0,1-1.23,2,3.21,3.21,0,0,1-2.42-.31l.38-.53a4.15,4.15,0,0,1,1,1.75,2.83,2.83,0,0,1-.23,2.11,3.4,3.4,0,0,1-2.59,1.83,4.6,4.6,0,0,1-.52.06l-.24,0h0a.27.27,0,0,0,.1-.13v0a7.5,7.5,0,0,1-.86,1.78,5.74,5.74,0,0,1-.63.79,3.15,3.15,0,0,1-.38.35l-.21.16a.93.93,0,0,1-.36.14,4.67,4.67,0,0,1-2.06-.46c-.62-.25-1.22-.53-1.81-.83-3-1.52-5.81-3.23-8.45-4.9l0,0,0,0a9.39,9.39,0,0,1-1-1.6,2.46,2.46,0,0,1-.32-1,1,1,0,0,1,.2-.61l.26-.37,2-2.87,0,.26a8.49,8.49,0,0,1-.21-1.86,3.73,3.73,0,0,1,.11-1,2.05,2.05,0,0,1,.53-.83,10.8,10.8,0,0,1,2.78-1.93l-.16.25c0-.69,0-1.34,0-2V303l0,0a6.31,6.31,0,0,1,1.13-1.87,2.38,2.38,0,0,1,1.9-.92l-.28.26c-.09-.83-.18-1.59-.26-2.32v-.06a11.36,11.36,0,0,1,1.48-3.49A2.82,2.82,0,0,1,85,293.09a5.3,5.3,0,0,1,1.74.17,1.57,1.57,0,0,1,.56.22,7.81,7.81,0,0,0-2.28-.16c-1.63,0-2.79,2.23-3.42,4.81v-.06c.1.72.2,1.48.31,2.31l0,.29-.32,0a2,2,0,0,0-1.44.79,6,6,0,0,0-1,1.73l0-.1v2.15l-.16.09a10.32,10.32,0,0,0-2.59,1.83,1.51,1.51,0,0,0-.39.6,3.05,3.05,0,0,0-.07.78,7.53,7.53,0,0,0,.21,1.7l0,.14-.08.12-1.94,2.89c-.16.25-.39.52-.34.58a2,2,0,0,0,.25.71,9.25,9.25,0,0,0,1,1.48l-.08-.08c2.62,1.65,5.41,3.35,8.39,4.85.58.29,1.17.57,1.76.81a4.5,4.5,0,0,0,1.67.42l.09,0,.17-.13c.11-.1.22-.19.32-.3A4.63,4.63,0,0,0,88,321a6.7,6.7,0,0,0,.78-1.59v0h0a.56.56,0,0,1,.19-.21l.13-.06.19,0,.26,0A3.54,3.54,0,0,0,90,319a2.71,2.71,0,0,0,.85-.26,2.9,2.9,0,0,0,1.24-1.21,2.61,2.61,0,0,0-.66-3.06l-1.34-1.36,1.72.83a2.6,2.6,0,0,0,1.89.29,1.56,1.56,0,0,0,.84-1.47,10,10,0,0,0-.77-3.79v0h0a82.23,82.23,0,0,0-4-11.64,14.29,14.29,0,0,0-1.67-2.94,3,3,0,0,0-.59-.65C87.35,293.57,87.27,293.49,87.28,293.48Z" style="fill:#ec806b"></path><path d="M91.65,314.23c-.08.16-3.47-2.05-6.23-6.1a28.8,28.8,0,0,1-3-5.44,7.49,7.49,0,0,1-.76-2.45c.21-.09,1.58,3.58,4.3,7.49S91.79,314.07,91.65,314.23Z" style="fill:#ec806b"></path><path d="M89.21,319.31A6,6,0,0,1,86.84,318a19.87,19.87,0,0,1-4.37-4.82,26.88,26.88,0,0,1-2.9-5.81,7.48,7.48,0,0,1-.62-2.61c.2-.07,1.33,3.88,4.11,8a24.55,24.55,0,0,0,4.09,4.82C88.37,318.71,89.26,319.2,89.21,319.31Z" style="fill:#ec806b"></path><path d="M86.19,322.28c-.06.17-3.39-1.52-6.33-4.94a20.54,20.54,0,0,1-3.18-4.76,5.65,5.65,0,0,1-.73-2.26,13.84,13.84,0,0,1,1.17,2,29.32,29.32,0,0,0,3.27,4.53C83.25,320.2,86.31,322.11,86.19,322.28Z" style="fill:#ec806b"></path><path d="M99.83,306.74c.07.06-.1.4-.55.79a5.86,5.86,0,0,1-2,1.05,9.45,9.45,0,0,1-2.19.46c-.64,0-1-.26-.93-.34s.36,0,.86-.15l2-.64C98.66,307.45,99.7,306.63,99.83,306.74Z" style="fill:#ec806b"></path><path d="M89.28,355.89l-3.06-15.81-11.61,3.08s-10.14-10-11.42-9.81c-.36.06-4.34.56-4.8,2.07a2.23,2.23,0,0,0-.17.93c-.83.29-3.38,1.59-3,6.48,0,0-4.31,2.14-2.83,5.9l.68,1.88a7.09,7.09,0,0,0-.08,5.75c1.33,3.05,16.09,6.89,19.86,6.76S91.06,362,91.06,362Z" style="fill:#fcac9b"></path><path d="M121.68,184.4a45.55,45.55,0,0,0-4,30.87c1.17,5.13,3.24,10.16,3,15.42-.12,3.2-1.08,6.31-1.48,9.49s-.16,6.67,1.83,9.18c1.63,2.07,4.17,3.15,6.43,4.51s4.48,3.35,4.69,6c.17,2.19-1.05,4.67.27,6.42s4,1.26,6.15.58c3.38-1.1,7.23-2.65,8.26-6.06a10.67,10.67,0,0,0,.14-4.18c-2.84-26.8-15.59-52.14-15.8-79.09" style="fill:#263238"></path><path d="M180.5,193.6c-4.06-9.69-8.24-19.79-17.63-24.52-8.36-4.21-16.9-4.14-26-1.92-4.48,1.1-9.16,4.2-12.65,7.22-4.78,4.13-5.82,10.78-7.29,16.93-3,12.32.77,27.44,5.15,31l52.08,15.42c7.46-6,12.63-9.16,13-18.73C187.42,212.46,183,199.62,180.5,193.6Z" style="fill:#263238"></path><path d="M171.62,182.74l-.93-5.26-32.62.18c-9.89.88-18.47,12.65-17.18,22.5,1.44,11,3.62,24.25,6.48,32.07,5.76,15.71,18.6,15.34,18.6,15.34l3.22,16.09,36-6.58Z" style="fill:#fcac9b"></path><path d="M130,211.55a2.11,2.11,0,0,0,2.41,1.71,2,2,0,0,0,1.78-2.3,2.11,2.11,0,0,0-2.41-1.7A2,2,0,0,0,130,211.55Z" style="fill:#263238"></path><path d="M125.27,205.32c.27.22,2.2.07,4.77.76s4.34,1.79,4.64,1.72c.15,0-.1-.38-.87-.88a13,13,0,0,0-3.69-1.56,11.72,11.72,0,0,0-3.82-.42C125.45,205,125.14,205.21,125.27,205.32Z" style="fill:#263238"></path><path d="M151.91,209.16a2.12,2.12,0,0,0,2.41,1.71,2,2,0,0,0,1.78-2.3,2.12,2.12,0,0,0-2.41-1.71A2,2,0,0,0,151.91,209.16Z" style="fill:#263238"></path><path d="M148.36,206.28c.34,0,1.67-1.32,4-2.43s4.32-1.41,4.5-1.66-.31-.2-1.19-.08a13,13,0,0,0-3.68,1.17,11.64,11.64,0,0,0-3.09,2.08C148.32,205.94,148.2,206.28,148.36,206.28Z" style="fill:#263238"></path><path d="M142.88,220.68a14.75,14.75,0,0,0-3.76.06c-.58,0-1.15,0-1.32-.33a2.91,2.91,0,0,1,0-1.77q.41-2.23.84-4.68c1.13-6.66,1.83-12.09,1.56-12.13s-1.4,5.32-2.53,12c-.27,1.64-.53,3.2-.77,4.7a3.36,3.36,0,0,0,.15,2.3,1.42,1.42,0,0,0,1.1.65,3.93,3.93,0,0,0,1,0A15,15,0,0,0,142.88,220.68Z" style="fill:#263238"></path><path d="M144.89,225.89a4.12,4.12,0,0,1,3.32-2.21,3.76,3.76,0,0,1,2.81.87,2.36,2.36,0,0,1,.7,2.63,2.77,2.77,0,0,1-2.79,1.32,8.69,8.69,0,0,1-3.19-1.15,2.46,2.46,0,0,1-.77-.53.75.75,0,0,1-.16-.84" style="fill:#ec806b"></path><path d="M149.78,220.94c-.37.05.1,2.48-1.64,4.61s-4.38,2.37-4.34,2.72c0,.15.67.35,1.77.17a6.14,6.14,0,0,0,3.65-2.13,5.33,5.33,0,0,0,1.21-3.84C150.33,221.44,149.94,220.89,149.78,220.94Z" style="fill:#263238"></path><path d="M146.12,202.9c.45.48,2.43-.7,5-1.47s4.86-1,5-1.62c0-.3-.54-.69-1.58-.89a9.06,9.06,0,0,0-7.59,2.35C146.17,202,145.91,202.67,146.12,202.9Z" style="fill:#263238"></path><path d="M126.62,202.89c.32.64,2.33.7,4.57,1.36s4,1.61,4.61,1.22c.27-.19.13-.78-.55-1.5a7.86,7.86,0,0,0-3.46-2,7.66,7.66,0,0,0-3.95-.12C126.9,202.15,126.48,202.58,126.62,202.89Z" style="fill:#263238"></path><path d="M121.9,221.9s9.34,28.84,17.95,28.16,32.51-13.17,32.51-13.17l-3.17-25.24S130.51,213.7,121.9,221.9Z" style="fill:#263238"></path><path d="M131.71,174a36.34,36.34,0,0,0,6.35,18.63,13.22,13.22,0,0,0,3.85,4,5.93,5.93,0,0,0,5.32.63,22.14,22.14,0,0,1-6.86-11.59c2.81,4.18,5.68,8.44,9.65,11.54s9.29,4.92,14.13,3.51l-1-3.24a11.65,11.65,0,0,0,5.11,5.38c2.29,1,5.32.75,6.92-1.19-3.23-7.71,0-17.41-4.6-24.41-3.17-4.85-9.25-6.93-15-7.58a46.16,46.16,0,0,0-23.88,3.69" style="fill:#263238"></path><path d="M132.4,174c0,.12,0,.24,0,.36h.06C132.44,174.23,132.42,174.1,132.4,174Z" style="fill:#263238"></path><path d="M132.39,174.34l-1-.21c-3.34-1-5.67-2.36-9.56,2.73a29.64,29.64,0,0,0-4.69,10.35c-.86,3.37-1.78,7-1.65,10.5a43.63,43.63,0,0,0,2.07,12.39c2.37-2.34,3.14-5.85,3.39-9.17s.13-6.72,1.16-9.88a25.3,25.3,0,0,0,1.11,8.23,3.44,3.44,0,0,0,1.27,1.84,1.46,1.46,0,0,0,2-.39,17.87,17.87,0,0,1-1.87-9.67,51.15,51.15,0,0,1,1.86-9.78,49.08,49.08,0,0,0,3.81,16.22,4.26,4.26,0,0,0,1.34,1.95,3.89,3.89,0,0,0,3.46,0,8.18,8.18,0,0,1,3.46-.83A47,47,0,0,1,132.39,174.34Z" style="fill:#263238"></path><path d="M207.74,239c-2.12-1.26-4.85-1.61-6.47-3.48-1.82-2.11-1.48-5.28-.88-8s1.32-5.71,0-8.19c-1.66-3.19-5.92-4.08-8.16-6.9-1.91-2.42-2-5.75-2.82-8.71-2.82-10-14.2-15.56-17.61-25.37l-14,15.88c5.84,5.19,4.74,14.65,8.49,21.52,1.14,2.1,2.75,4,3.57,6.2,1.88,5.17-.82,11,.16,16.37.5,2.71,2.35,5.51,5.1,5.74s4.88-2,7.44-2.82c4.31-1.37,8.74,1.37,12.43,4,5.74,4.05,10.86,12.42,14.4,18.49,1.21-3.55,3.22-11.32,3.18-15.08S211,240.87,207.74,239Z" style="fill:#263238"></path><path d="M215.93,248.3s.21-.19.51-.64a4.08,4.08,0,0,0,.64-2.2A6.11,6.11,0,0,0,216,242a11.92,11.92,0,0,0-3.68-3.17,27.15,27.15,0,0,1-5-3.43,7.46,7.46,0,0,1-1.91-2.84,6.57,6.57,0,0,1-.15-3.63c.23-1.21.65-2.4.86-3.62a5.07,5.07,0,0,0-.46-3.61,7.4,7.4,0,0,0-2.91-2.52c-1.18-.67-2.45-1.24-3.65-2a9.08,9.08,0,0,1-1.64-1.39,7.6,7.6,0,0,1-1.17-1.78,17.53,17.53,0,0,1-1.19-3.91,24,24,0,0,0-2.43-7.13,33.8,33.8,0,0,0-8.23-9.75c-2.81-2.35-5.29-4-7-5.19l-1.95-1.34a4.33,4.33,0,0,1-.66-.5,6,6,0,0,1,.72.41l2,1.26a77.84,77.84,0,0,1,7.09,5.08,33.38,33.38,0,0,1,8.42,9.8,24.41,24.41,0,0,1,2.51,7.25,16.94,16.94,0,0,0,1.16,3.79,7.1,7.1,0,0,0,2.63,3c1.15.75,2.41,1.33,3.61,2a7.76,7.76,0,0,1,3.1,2.72,5.57,5.57,0,0,1,.51,3.94c-.23,1.29-.65,2.46-.88,3.64a6.23,6.23,0,0,0,.11,3.38,7,7,0,0,0,1.78,2.68,27.29,27.29,0,0,0,4.87,3.43,12.12,12.12,0,0,1,3.74,3.32,6.42,6.42,0,0,1,1,3.63,4,4,0,0,1-.77,2.25A2.12,2.12,0,0,1,215.93,248.3Z" style="fill:#263238"></path><path d="M129.16,262.84a5.71,5.71,0,0,1-.75-.36c-.5-.24-1.2-.64-2.09-1.18a29.24,29.24,0,0,1-6.7-5.68,21,21,0,0,1-3.29-5.14,16.11,16.11,0,0,1-1.4-6.87,30.51,30.51,0,0,1,1.45-7.59,41.56,41.56,0,0,0,1.8-8c.52-5.61-.64-11-1.56-15.74a67,67,0,0,1-1.68-12.93,24.54,24.54,0,0,1,1.35-8.68,14,14,0,0,1,1.39-2.92s-.54,1-1.2,3a25.91,25.91,0,0,0-1.18,8.61,69.26,69.26,0,0,0,1.8,12.85c.94,4.79,2.12,10.16,1.6,15.88a41.33,41.33,0,0,1-1.83,8.09,30.07,30.07,0,0,0-1.46,7.47,15.59,15.59,0,0,0,1.32,6.67,20.62,20.62,0,0,0,3.17,5.08,30.94,30.94,0,0,0,6.53,5.75c.87.56,1.55,1,2,1.26A4.3,4.3,0,0,1,129.16,262.84Z" style="fill:#263238"></path><path d="M138.41,215.5s-.11.05-.32.1l-.93.22c-.42.09-.92.2-1.51.36s-1.27.31-2,.54a45.49,45.49,0,0,0-5.29,1.87,31.18,31.18,0,0,0-6.29,3.49l.08-.23A63.6,63.6,0,0,0,127.05,236a52.22,52.22,0,0,0,3.15,5.8,16.64,16.64,0,0,0,4.08,4.48,14.68,14.68,0,0,0,2.44,1.43,25.83,25.83,0,0,0,2.45,1.1,8.87,8.87,0,0,0,4.7.29,38.44,38.44,0,0,0,6.68-2.15l1.77-.72A5.93,5.93,0,0,1,153,246a2.48,2.48,0,0,1-.59.32c-.39.19-1,.48-1.74.81a33.46,33.46,0,0,1-6.68,2.33,9.13,9.13,0,0,1-4.91-.24,27.35,27.35,0,0,1-2.51-1.1,15.48,15.48,0,0,1-2.53-1.45,17.25,17.25,0,0,1-4.22-4.59,53.49,53.49,0,0,1-3.19-5.85,62.34,62.34,0,0,1-4.91-14.28l0-.14.12-.08a31.13,31.13,0,0,1,6.44-3.48,40.2,40.2,0,0,1,5.36-1.78c.76-.21,1.44-.37,2-.49s1.11-.23,1.53-.29l1-.15Z" style="fill:#455a64"></path><path d="M161.9,200.9a10.89,10.89,0,0,1,.42,1.53,40.55,40.55,0,0,0,1.39,4c.68,1.68,1.58,3.64,2.62,5.8s2.2,4.55,3.22,7.14a20.21,20.21,0,0,1,1.67,7.68c-.07,2.44-.52,4.57-.69,6.37a15.22,15.22,0,0,0,0,4.24c.18,1,.42,1.51.37,1.53s-.09-.12-.19-.36a6.76,6.76,0,0,1-.38-1.12,14.13,14.13,0,0,1-.2-4.33c.12-1.82.53-4,.57-6.33a20.35,20.35,0,0,0-1.67-7.49c-1-2.57-2.17-4.94-3.18-7.12s-1.89-4.17-2.52-5.88a31.1,31.1,0,0,1-1.25-4.14A8.05,8.05,0,0,1,161.9,200.9Z" style="fill:#455a64"></path><path d="M99.37,310.32s2.62-6.88,11.16-6.22l1.53-6.35,17.07-19.48A24,24,0,0,1,132.55,266c3.59-5.47,7.44-8.44,7.44-10.07s1,38.31,1,38.31-17,37.11-17.12,38.18S99,346.13,99,346.13s-5-5.84-8.39-10.24L87.43,327S101.56,323.24,99.37,310.32Z" style="fill:#263238"></path><path d="M215,275c-.67-.6-8.57-33.91-30-34.93l-45,14.28s-10,30.85-11.8,49.2c-1.59,16.34-9.8,45.42-5.07,69.49L191,368.52s15.16-2.79,19.24-18.34S215.7,275.57,215,275Z" style="fill:#263238"></path><path d="M123.83,332.43a1.83,1.83,0,0,1,0-.64c.05-.5.12-1.1.2-1.82.2-1.58.51-3.87.93-6.68.84-5.63,2.12-13.39,3.66-21.94s3.07-16.27,4.29-21.83c.61-2.78,1.14-5,1.54-6.57.19-.7.34-1.29.48-1.77a2.4,2.4,0,0,1,.21-.61,2.18,2.18,0,0,1-.08.64c-.09.49-.21,1.09-.35,1.8-.33,1.67-.77,3.9-1.31,6.61-1.1,5.58-2.54,13.31-4.09,21.85s-2.85,16.19-3.86,21.9L124.32,330l-.33,1.8A2.22,2.22,0,0,1,123.83,332.43Z" style="fill:#455a64"></path><path d="M123.83,400.15c-.23-1.8-.07-28.92,0-27.18l75-7.58,5.51,34.66Z" style="fill:#455a64"></path><path d="M177,244.45s8.43-5.21,15.87,0,21.33,23.8,22.07,33-5.7,48.11-5.7,48.11-27.77,45.13-47.61,42.9-72-4.27-72-4.27h0l-5.63-22.82,65.72-23s12.86-42.94,14.6-50.13S173.18,246.07,177,244.45Z" style="fill:#263238"></path><path d="M163.13,369a12.83,12.83,0,0,1-1.53-.09c-19.59-2.2-71.4-4.24-71.92-4.26l-.37,0L83.47,341l.43-.15L149.39,318c1.05-3.51,12.87-43.05,14.51-49.86s8.65-22.29,12.9-24.14c.62-.36,9-5.12,16.39,0s21.52,24,22.28,33.35c.74,9.13-5.44,46.63-5.71,48.23l-.06.18a203.39,203.39,0,0,1-16.42,22.35C181.42,362,171.28,369,163.13,369Zm-73-5.34c4.75.19,52.87,2.15,71.61,4.26,18.91,2.13,45.73-40.41,47.08-42.58.36-2.18,6.4-39.11,5.68-47.89-.73-9.1-14.55-27.5-21.85-32.61-7.08-5-15.24,0-15.33,0l-.06,0c-3.62,1.52-10.64,16.35-12.36,23.46s-14.47,49.73-14.6,50.16l-.07.24L84.66,341.68Z" style="fill:#455a64"></path></g><g id="freepik--Arrows--inject-10"><path d="M261.33,286.41V302.3a7.07,7.07,0,0,1-10.61,6.12L237,300.48l-13.76-8a7.08,7.08,0,0,1,0-12.25L237,272.34l13.76-7.94a7.07,7.07,0,0,1,10.61,6.12Z" style="fill:#56CA77"></path><g style="opacity:0.30000000000000004"><path d="M261.33,286.41V302.3a7.07,7.07,0,0,1-10.61,6.12L237,300.48l-13.76-8a7.08,7.08,0,0,1,0-12.25L237,272.34l13.76-7.94a7.07,7.07,0,0,1,10.61,6.12Z"></path></g><path d="M261.33,282.3v15.89a7.07,7.07,0,0,1-10.61,6.13L237,296.37l-13.76-7.94a7.08,7.08,0,0,1,0-12.25L237,268.24l13.76-7.95a7.07,7.07,0,0,1,10.61,6.13Z" style="fill:#56CA77"></path><path d="M251.88,304.86a7.09,7.09,0,0,1-1.22-.58l-3.24-1.73c-2.72-1.49-6.45-3.57-10.56-5.92-8.2-4.7-14.77-8.71-14.55-9,0,0,.39.27,1.13.71l3.18,1.84,10.5,6,10.48,6.06,3.16,1.88A5.71,5.71,0,0,1,251.88,304.86Z" style="fill:#263238"></path><g style="opacity:0.12"><path d="M257.22,264.69c-1.4-1.49-3.27-1.21-4.92-.62a30.31,30.31,0,0,0-5.88,2.9l-18.27,11.4a4.89,4.89,0,0,0-2.24,5.31,4.14,4.14,0,0,0,.73,1.49,5.79,5.79,0,0,0,5.28,2.13c2.63-.38,4.61-2.49,6.7-4.13,5.26-4.12,12.25-5.77,17-10.48,1.53-1.53,2.83-3.45,2.62-5.72A3.88,3.88,0,0,0,257.22,264.69Z" style="fill:#fff"></path></g><path d="M481.33,286.41V302.3a7.07,7.07,0,0,0,10.61,6.12l13.76-7.94,13.76-8a7.08,7.08,0,0,0,0-12.25l-13.76-7.94-13.76-7.94a7.07,7.07,0,0,0-10.61,6.12Z" style="fill:#56CA77"></path><g style="opacity:0.30000000000000004"><path d="M481.33,286.41V302.3a7.07,7.07,0,0,0,10.61,6.12l13.76-7.94,13.76-8a7.08,7.08,0,0,0,0-12.25l-13.76-7.94-13.76-7.94a7.07,7.07,0,0,0-10.61,6.12Z"></path></g><path d="M481.33,282.3v15.89a7.08,7.08,0,0,0,10.61,6.13l13.76-7.95,13.76-7.94a7.08,7.08,0,0,0,0-12.25l-13.76-7.94-13.76-7.95a7.08,7.08,0,0,0-10.61,6.13Z" style="fill:#56CA77"></path><path d="M490.78,304.86a6.55,6.55,0,0,1,1.13-.75l3.15-1.88,10.48-6.06,10.51-6,3.17-1.84c.75-.44,1.14-.71,1.14-.71.22.31-6.35,4.32-14.56,9-4.1,2.35-7.84,4.43-10.56,5.92L492,304.28A6.93,6.93,0,0,1,490.78,304.86Z" style="fill:#263238"></path><g style="opacity:0.12"><path d="M485.44,264.69c1.41-1.49,3.27-1.21,4.92-.62a30,30,0,0,1,5.88,2.9l18.28,11.4a4.88,4.88,0,0,1,2.23,5.31,4.12,4.12,0,0,1-.72,1.49,5.8,5.8,0,0,1-5.28,2.13c-2.64-.38-4.61-2.49-6.71-4.13-5.25-4.12-12.24-5.77-17-10.48-1.53-1.53-2.82-3.45-2.61-5.72A3.87,3.87,0,0,1,485.44,264.69Z" style="fill:#fff"></path></g></g></svg>